<mxfile host="app.diagrams.net" modified="2021-12-29T08:59:38.707Z" agent="5.0 (Macintosh; Intel Mac OS X 10_16_0) AppleWebKit/537.36 (KHTML, like Gecko) Chrome/80.0.3987.163 Safari/537.36" etag="5T-7-Ixyxvt-SdVrF1Hi" version="16.1.0" type="github">
  <diagram id="2rsU9yD35tYkbE_-SbJo" name="第 1 页">
    <mxGraphModel dx="6123" dy="2400" grid="1" gridSize="10" guides="1" tooltips="1" connect="1" arrows="1" fold="1" page="1" pageScale="1" pageWidth="2339" pageHeight="3300" math="0" shadow="0">
      <root>
        <mxCell id="0" />
        <mxCell id="1" parent="0" />
        <mxCell id="xD9VcQmtIi4IChWEVNGQ-1" value="传进来的如果是个beanName包含&amp;amp;就去掉" style="edgeStyle=orthogonalEdgeStyle;rounded=0;orthogonalLoop=1;jettySize=auto;html=1;exitX=0.5;exitY=1;exitDx=0;exitDy=0;" parent="1" source="xD9VcQmtIi4IChWEVNGQ-5" target="xD9VcQmtIi4IChWEVNGQ-3" edge="1">
          <mxGeometry relative="1" as="geometry" />
        </mxCell>
        <mxCell id="xD9VcQmtIi4IChWEVNGQ-2" value="首先会先尝试到三级缓存中查找" style="edgeStyle=orthogonalEdgeStyle;rounded=0;orthogonalLoop=1;jettySize=auto;html=1;exitX=0.5;exitY=1;exitDx=0;exitDy=0;" parent="1" source="xD9VcQmtIi4IChWEVNGQ-3" target="xD9VcQmtIi4IChWEVNGQ-8" edge="1">
          <mxGeometry relative="1" as="geometry">
            <mxPoint x="705" y="390" as="targetPoint" />
          </mxGeometry>
        </mxCell>
        <mxCell id="xD9VcQmtIi4IChWEVNGQ-3" value="&lt;div&gt;&lt;font color=&quot;#080808&quot; face=&quot;jetbrains mono, monospace&quot;&gt;&lt;span style=&quot;font-size: 13.0667px&quot;&gt;AbstractBeanFactory.java&lt;/span&gt;&lt;/font&gt;&lt;/div&gt;&lt;div&gt;&lt;font color=&quot;#080808&quot; face=&quot;jetbrains mono, monospace&quot;&gt;&lt;span style=&quot;font-size: 13.0667px&quot;&gt;transformedBeanName(name);&lt;/span&gt;&lt;/font&gt;&lt;/div&gt;" style="rounded=1;whiteSpace=wrap;html=1;" parent="1" vertex="1">
          <mxGeometry x="590" y="250" width="230" height="60" as="geometry" />
        </mxCell>
        <mxCell id="xD9VcQmtIi4IChWEVNGQ-4" value="bean的生命周期" style="shape=document;whiteSpace=wrap;html=1;boundedLbl=1;fillColor=#e1d5e7;strokeColor=#9673a6;" parent="1" vertex="1">
          <mxGeometry x="200" y="120" width="120" height="80" as="geometry" />
        </mxCell>
        <mxCell id="xD9VcQmtIi4IChWEVNGQ-5" value="&lt;div&gt;&lt;font color=&quot;#080808&quot; face=&quot;jetbrains mono, monospace&quot;&gt;&lt;span style=&quot;font-size: 13.0667px&quot;&gt;AbstractBeanFactory.java&lt;/span&gt;&lt;/font&gt;&lt;/div&gt;&lt;div&gt;&lt;font color=&quot;#080808&quot; face=&quot;jetbrains mono, monospace&quot;&gt;&lt;span style=&quot;font-size: 13.0667px&quot;&gt;doGetBean(...)&lt;/span&gt;&lt;/font&gt;&lt;/div&gt;" style="shape=parallelogram;perimeter=parallelogramPerimeter;whiteSpace=wrap;html=1;fixedSize=1;" parent="1" vertex="1">
          <mxGeometry x="587.5" y="120" width="235" height="60" as="geometry" />
        </mxCell>
        <mxCell id="xD9VcQmtIi4IChWEVNGQ-6" style="edgeStyle=orthogonalEdgeStyle;rounded=0;orthogonalLoop=1;jettySize=auto;html=1;exitX=0;exitY=1;exitDx=0;exitDy=0;" parent="1" source="xD9VcQmtIi4IChWEVNGQ-8" target="xD9VcQmtIi4IChWEVNGQ-11" edge="1">
          <mxGeometry relative="1" as="geometry" />
        </mxCell>
        <mxCell id="xD9VcQmtIi4IChWEVNGQ-7" value="三级缓存中没有" style="edgeLabel;html=1;align=center;verticalAlign=middle;resizable=0;points=[];" parent="xD9VcQmtIi4IChWEVNGQ-6" vertex="1" connectable="0">
          <mxGeometry x="-0.0722" relative="1" as="geometry">
            <mxPoint x="-5" as="offset" />
          </mxGeometry>
        </mxCell>
        <mxCell id="xD9VcQmtIi4IChWEVNGQ-8" value="&lt;div&gt;AbstractBeanFactory.java&lt;/div&gt;&lt;div&gt;getSingleton(beanName);&lt;/div&gt;" style="rhombus;whiteSpace=wrap;html=1;" parent="1" vertex="1">
          <mxGeometry x="565" y="390" width="280" height="90" as="geometry" />
        </mxCell>
        <mxCell id="xD9VcQmtIi4IChWEVNGQ-9" style="edgeStyle=orthogonalEdgeStyle;rounded=0;orthogonalLoop=1;jettySize=auto;html=1;" parent="1" edge="1">
          <mxGeometry relative="1" as="geometry">
            <mxPoint x="820" y="440" as="sourcePoint" />
            <mxPoint x="820" y="460" as="targetPoint" />
          </mxGeometry>
        </mxCell>
        <mxCell id="xD9VcQmtIi4IChWEVNGQ-10" style="edgeStyle=orthogonalEdgeStyle;rounded=0;orthogonalLoop=1;jettySize=auto;html=1;exitX=0.5;exitY=1;exitDx=0;exitDy=0;entryX=0.5;entryY=0;entryDx=0;entryDy=0;" parent="1" source="xD9VcQmtIi4IChWEVNGQ-11" target="xD9VcQmtIi4IChWEVNGQ-17" edge="1">
          <mxGeometry relative="1" as="geometry" />
        </mxCell>
        <mxCell id="xD9VcQmtIi4IChWEVNGQ-11" value="&lt;div&gt;AbstractBeanFactory.java&lt;/div&gt;&lt;div&gt;transformedBeanName(name);&lt;/div&gt;" style="rounded=1;whiteSpace=wrap;html=1;" parent="1" vertex="1">
          <mxGeometry x="390" y="560" width="230" height="60" as="geometry" />
        </mxCell>
        <mxCell id="xD9VcQmtIi4IChWEVNGQ-12" style="edgeStyle=orthogonalEdgeStyle;rounded=0;orthogonalLoop=1;jettySize=auto;html=1;exitX=0;exitY=0.5;exitDx=0;exitDy=0;entryX=1;entryY=0.5;entryDx=0;entryDy=0;" parent="1" source="xD9VcQmtIi4IChWEVNGQ-17" target="xD9VcQmtIi4IChWEVNGQ-18" edge="1">
          <mxGeometry relative="1" as="geometry" />
        </mxCell>
        <mxCell id="xD9VcQmtIi4IChWEVNGQ-13" value="" style="edgeStyle=orthogonalEdgeStyle;rounded=0;orthogonalLoop=1;jettySize=auto;html=1;" parent="1" source="xD9VcQmtIi4IChWEVNGQ-17" target="xD9VcQmtIi4IChWEVNGQ-18" edge="1">
          <mxGeometry relative="1" as="geometry" />
        </mxCell>
        <mxCell id="xD9VcQmtIi4IChWEVNGQ-14" value="否" style="edgeLabel;html=1;align=center;verticalAlign=middle;resizable=0;points=[];" parent="xD9VcQmtIi4IChWEVNGQ-13" vertex="1" connectable="0">
          <mxGeometry x="0.08" y="2" relative="1" as="geometry">
            <mxPoint as="offset" />
          </mxGeometry>
        </mxCell>
        <mxCell id="xD9VcQmtIi4IChWEVNGQ-15" style="edgeStyle=orthogonalEdgeStyle;rounded=0;orthogonalLoop=1;jettySize=auto;html=1;exitX=0.5;exitY=1;exitDx=0;exitDy=0;entryX=0.5;entryY=0;entryDx=0;entryDy=0;" parent="1" source="xD9VcQmtIi4IChWEVNGQ-17" target="xD9VcQmtIi4IChWEVNGQ-20" edge="1">
          <mxGeometry relative="1" as="geometry" />
        </mxCell>
        <mxCell id="xD9VcQmtIi4IChWEVNGQ-16" value="是" style="edgeLabel;html=1;align=center;verticalAlign=middle;resizable=0;points=[];" parent="xD9VcQmtIi4IChWEVNGQ-15" vertex="1" connectable="0">
          <mxGeometry x="-0.1529" relative="1" as="geometry">
            <mxPoint as="offset" />
          </mxGeometry>
        </mxCell>
        <mxCell id="xD9VcQmtIi4IChWEVNGQ-17" value="&lt;div&gt;当前容器中是否存在当前beanName的&lt;/div&gt;&lt;div&gt;BeanDefinition&lt;/div&gt;" style="rhombus;whiteSpace=wrap;html=1;" parent="1" vertex="1">
          <mxGeometry x="347.5" y="685" width="315" height="100" as="geometry" />
        </mxCell>
        <mxCell id="xD9VcQmtIi4IChWEVNGQ-18" value="&lt;div&gt;// 如果当前容器中没有当前beanName的&lt;/div&gt;&lt;div&gt;BeanDefinition，并且存在父容器，则去&lt;/div&gt;&lt;div&gt;父容器中找，并返回。&lt;/div&gt;&lt;div&gt;parentBeanFactory != null&amp;nbsp;&lt;/div&gt;&lt;div&gt;&amp;amp;&amp;amp; !containsBeanDefinition(beanName)&lt;/div&gt;" style="rounded=1;whiteSpace=wrap;html=1;" parent="1" vertex="1">
          <mxGeometry x="-30" y="685" width="260" height="100" as="geometry" />
        </mxCell>
        <mxCell id="xD9VcQmtIi4IChWEVNGQ-19" style="edgeStyle=orthogonalEdgeStyle;rounded=0;orthogonalLoop=1;jettySize=auto;html=1;exitX=0.5;exitY=1;exitDx=0;exitDy=0;entryX=0.5;entryY=0;entryDx=0;entryDy=0;" parent="1" source="xD9VcQmtIi4IChWEVNGQ-20" target="xD9VcQmtIi4IChWEVNGQ-25" edge="1">
          <mxGeometry relative="1" as="geometry" />
        </mxCell>
        <mxCell id="xD9VcQmtIi4IChWEVNGQ-20" value="&lt;div&gt;AbstractBeanFactory.java&lt;/div&gt;&lt;div&gt;解析@dependsOn注解&lt;/div&gt;" style="rounded=1;whiteSpace=wrap;html=1;" parent="1" vertex="1">
          <mxGeometry x="390" y="870" width="230" height="60" as="geometry" />
        </mxCell>
        <mxCell id="xD9VcQmtIi4IChWEVNGQ-21" style="edgeStyle=orthogonalEdgeStyle;rounded=0;orthogonalLoop=1;jettySize=auto;html=1;exitX=1;exitY=0;exitDx=0;exitDy=0;entryX=0;entryY=0.5;entryDx=0;entryDy=0;" parent="1" source="xD9VcQmtIi4IChWEVNGQ-25" target="xD9VcQmtIi4IChWEVNGQ-28" edge="1">
          <mxGeometry relative="1" as="geometry" />
        </mxCell>
        <mxCell id="xD9VcQmtIi4IChWEVNGQ-22" value="singleton" style="edgeLabel;html=1;align=center;verticalAlign=middle;resizable=0;points=[];" parent="xD9VcQmtIi4IChWEVNGQ-21" vertex="1" connectable="0">
          <mxGeometry x="0.1341" y="-2" relative="1" as="geometry">
            <mxPoint x="1" as="offset" />
          </mxGeometry>
        </mxCell>
        <mxCell id="xD9VcQmtIi4IChWEVNGQ-23" style="edgeStyle=orthogonalEdgeStyle;rounded=0;orthogonalLoop=1;jettySize=auto;html=1;exitX=0.5;exitY=1;exitDx=0;exitDy=0;entryX=0;entryY=0.5;entryDx=0;entryDy=0;startArrow=none;startFill=0;" parent="1" source="xD9VcQmtIi4IChWEVNGQ-25" target="xD9VcQmtIi4IChWEVNGQ-136" edge="1">
          <mxGeometry relative="1" as="geometry" />
        </mxCell>
        <mxCell id="xD9VcQmtIi4IChWEVNGQ-24" value="prototype" style="edgeLabel;html=1;align=center;verticalAlign=middle;resizable=0;points=[];" parent="xD9VcQmtIi4IChWEVNGQ-23" vertex="1" connectable="0">
          <mxGeometry x="-0.4117" y="-1" relative="1" as="geometry">
            <mxPoint as="offset" />
          </mxGeometry>
        </mxCell>
        <mxCell id="xD9VcQmtIi4IChWEVNGQ-25" value="判断bean的scope属性" style="rhombus;whiteSpace=wrap;html=1;" parent="1" vertex="1">
          <mxGeometry x="365" y="1040" width="280" height="60" as="geometry" />
        </mxCell>
        <mxCell id="xD9VcQmtIi4IChWEVNGQ-26" style="edgeStyle=orthogonalEdgeStyle;rounded=0;orthogonalLoop=1;jettySize=auto;html=1;exitX=0.5;exitY=1;exitDx=0;exitDy=0;" parent="1" source="xD9VcQmtIi4IChWEVNGQ-28" target="xD9VcQmtIi4IChWEVNGQ-131" edge="1">
          <mxGeometry relative="1" as="geometry">
            <mxPoint x="910" y="1130" as="targetPoint" />
          </mxGeometry>
        </mxCell>
        <mxCell id="xD9VcQmtIi4IChWEVNGQ-27" value="尝试从singletonObjects中获取" style="edgeLabel;html=1;align=center;verticalAlign=middle;resizable=0;points=[];" parent="xD9VcQmtIi4IChWEVNGQ-26" vertex="1" connectable="0">
          <mxGeometry x="-0.0333" y="3" relative="1" as="geometry">
            <mxPoint as="offset" />
          </mxGeometry>
        </mxCell>
        <mxCell id="xD9VcQmtIi4IChWEVNGQ-28" value="&lt;div style=&quot;text-align: center&quot;&gt;AbstractBeanFactory.java&lt;/div&gt;&lt;div&gt;getSingleton(beanName, () -&amp;gt; {&lt;/div&gt;&lt;div&gt;&amp;nbsp; &amp;nbsp; return createBean(beanName, mbd, args);&lt;/div&gt;&lt;div&gt;&amp;nbsp;});&lt;/div&gt;&lt;div&gt;&amp;nbsp; &amp;nbsp;&lt;/div&gt;" style="rounded=1;whiteSpace=wrap;html=1;align=left;" parent="1" vertex="1">
          <mxGeometry x="787.5" y="890" width="245" height="80" as="geometry" />
        </mxCell>
        <mxCell id="xD9VcQmtIi4IChWEVNGQ-29" style="edgeStyle=orthogonalEdgeStyle;rounded=0;orthogonalLoop=1;jettySize=auto;html=1;exitX=0.5;exitY=1;exitDx=0;exitDy=0;entryX=0.5;entryY=0;entryDx=0;entryDy=0;" parent="1" source="xD9VcQmtIi4IChWEVNGQ-32" target="xD9VcQmtIi4IChWEVNGQ-34" edge="1">
          <mxGeometry relative="1" as="geometry" />
        </mxCell>
        <mxCell id="xD9VcQmtIi4IChWEVNGQ-30" value="将创建好的bean放入singletonObjects" style="edgeLabel;html=1;align=center;verticalAlign=middle;resizable=0;points=[];" parent="xD9VcQmtIi4IChWEVNGQ-29" vertex="1" connectable="0">
          <mxGeometry x="-0.2286" y="-3" relative="1" as="geometry">
            <mxPoint as="offset" />
          </mxGeometry>
        </mxCell>
        <mxCell id="xD9VcQmtIi4IChWEVNGQ-31" style="edgeStyle=orthogonalEdgeStyle;rounded=0;orthogonalLoop=1;jettySize=auto;html=1;exitX=1;exitY=0.5;exitDx=0;exitDy=0;" parent="1" source="xD9VcQmtIi4IChWEVNGQ-32" target="xD9VcQmtIi4IChWEVNGQ-39" edge="1">
          <mxGeometry relative="1" as="geometry" />
        </mxCell>
        <mxCell id="xD9VcQmtIi4IChWEVNGQ-32" value="&lt;div&gt;&lt;span style=&quot;font-size: 11px ; background-color: rgb(255 , 255 , 255)&quot;&gt;调用上文传来的lambda函数&lt;/span&gt;&lt;br&gt;&lt;/div&gt;&lt;div&gt;DefaultSingletonBeanRegistry.java&lt;/div&gt;&lt;div&gt;singletonFactory.getObject()&lt;/div&gt;" style="rounded=1;whiteSpace=wrap;html=1;" parent="1" vertex="1">
          <mxGeometry x="790" y="1130" width="240" height="60" as="geometry" />
        </mxCell>
        <mxCell id="xD9VcQmtIi4IChWEVNGQ-33" style="edgeStyle=orthogonalEdgeStyle;rounded=0;orthogonalLoop=1;jettySize=auto;html=1;exitX=0;exitY=0.5;exitDx=0;exitDy=0;entryX=0;entryY=0.5;entryDx=0;entryDy=0;dashed=1;" parent="1" source="xD9VcQmtIi4IChWEVNGQ-34" target="xD9VcQmtIi4IChWEVNGQ-131" edge="1">
          <mxGeometry relative="1" as="geometry">
            <Array as="points">
              <mxPoint x="730" y="1285" />
              <mxPoint x="730" y="1050" />
            </Array>
          </mxGeometry>
        </mxCell>
        <mxCell id="xD9VcQmtIi4IChWEVNGQ-34" value="&lt;div&gt;DefaultSingletonBeanRegistry.java&lt;/div&gt;&lt;div&gt;addSingleton(beanName, singletonObject);&lt;/div&gt;" style="rounded=1;whiteSpace=wrap;html=1;fillColor=#f8cecc;strokeColor=#b85450;" parent="1" vertex="1">
          <mxGeometry x="777.5" y="1260" width="265" height="50" as="geometry" />
        </mxCell>
        <mxCell id="xD9VcQmtIi4IChWEVNGQ-35" style="edgeStyle=orthogonalEdgeStyle;rounded=0;orthogonalLoop=1;jettySize=auto;html=1;exitX=1;exitY=0.5;exitDx=0;exitDy=0;entryX=0;entryY=0.5;entryDx=0;entryDy=0;" parent="1" source="xD9VcQmtIi4IChWEVNGQ-39" target="xD9VcQmtIi4IChWEVNGQ-40" edge="1">
          <mxGeometry relative="1" as="geometry" />
        </mxCell>
        <mxCell id="xD9VcQmtIi4IChWEVNGQ-36" style="edgeStyle=orthogonalEdgeStyle;rounded=0;orthogonalLoop=1;jettySize=auto;html=1;exitX=1;exitY=0.5;exitDx=0;exitDy=0;" parent="1" source="xD9VcQmtIi4IChWEVNGQ-39" target="xD9VcQmtIi4IChWEVNGQ-41" edge="1">
          <mxGeometry relative="1" as="geometry" />
        </mxCell>
        <mxCell id="xD9VcQmtIi4IChWEVNGQ-37" style="edgeStyle=orthogonalEdgeStyle;rounded=0;orthogonalLoop=1;jettySize=auto;html=1;exitX=1;exitY=0.5;exitDx=0;exitDy=0;entryX=0;entryY=0.5;entryDx=0;entryDy=0;" parent="1" source="xD9VcQmtIi4IChWEVNGQ-39" target="xD9VcQmtIi4IChWEVNGQ-43" edge="1">
          <mxGeometry relative="1" as="geometry" />
        </mxCell>
        <mxCell id="xD9VcQmtIi4IChWEVNGQ-38" style="edgeStyle=orthogonalEdgeStyle;rounded=0;orthogonalLoop=1;jettySize=auto;html=1;exitX=1;exitY=0.5;exitDx=0;exitDy=0;entryX=0;entryY=0.5;entryDx=0;entryDy=0;" parent="1" source="xD9VcQmtIi4IChWEVNGQ-39" target="xD9VcQmtIi4IChWEVNGQ-55" edge="1">
          <mxGeometry relative="1" as="geometry" />
        </mxCell>
        <mxCell id="xD9VcQmtIi4IChWEVNGQ-39" value="&lt;span style=&quot;font-size: 13.0667px&quot;&gt;AbstractAutowireCapableBeanFactory&lt;/span&gt;&lt;span style=&quot;font-size: 13.0667px&quot;&gt;.java&lt;/span&gt;&lt;span style=&quot;font-size: 13.0667px&quot;&gt;&lt;br&gt;&lt;/span&gt;&lt;span style=&quot;font-size: 13.0667px&quot;&gt;createBean&lt;/span&gt;&lt;span style=&quot;font-size: 13.0667px&quot;&gt;()&lt;/span&gt;&lt;span style=&quot;font-size: 13.0667px&quot;&gt;&lt;br&gt;&lt;/span&gt;" style="rounded=1;whiteSpace=wrap;html=1;" parent="1" vertex="1">
          <mxGeometry x="1110" y="1130" width="280" height="60" as="geometry" />
        </mxCell>
        <mxCell id="xD9VcQmtIi4IChWEVNGQ-40" value="&lt;span style=&quot;font-size: 13.0667px&quot;&gt;通过classLoad加载类AbstractAutowireCapableBeanFactory&lt;/span&gt;&lt;span style=&quot;font-size: 13.0667px&quot;&gt;.java&lt;/span&gt;&lt;span style=&quot;font-size: 13.0667px&quot;&gt;&lt;br&gt;&lt;/span&gt;&lt;span style=&quot;font-size: 13.0667px&quot;&gt;resolveBeanClass(mbd, beanName);&lt;/span&gt;" style="rounded=1;whiteSpace=wrap;html=1;fillColor=#e1d5e7;strokeColor=#9673a6;" parent="1" vertex="1">
          <mxGeometry x="1497" y="1080" width="280" height="60" as="geometry" />
        </mxCell>
        <mxCell id="xD9VcQmtIi4IChWEVNGQ-41" value="&lt;span style=&quot;font-size: 13.0667px&quot;&gt;解析@Lookup注解&lt;br&gt;AbstractAutowireCapableBeanFactory&lt;/span&gt;&lt;span style=&quot;font-size: 13.0667px&quot;&gt;.java&lt;/span&gt;&lt;span style=&quot;font-size: 13.0667px&quot;&gt;&lt;br&gt;&lt;/span&gt;&lt;span style=&quot;font-size: 13.0667px&quot;&gt;mbdToUse.prepareMethodOverrides();&lt;/span&gt;" style="rounded=1;whiteSpace=wrap;html=1;" parent="1" vertex="1">
          <mxGeometry x="1497" y="1170" width="280" height="60" as="geometry" />
        </mxCell>
        <mxCell id="xD9VcQmtIi4IChWEVNGQ-42" style="edgeStyle=orthogonalEdgeStyle;rounded=0;orthogonalLoop=1;jettySize=auto;html=1;exitX=1;exitY=0.5;exitDx=0;exitDy=0;entryX=0;entryY=0.5;entryDx=0;entryDy=0;" parent="1" source="xD9VcQmtIi4IChWEVNGQ-43" target="xD9VcQmtIi4IChWEVNGQ-47" edge="1">
          <mxGeometry relative="1" as="geometry" />
        </mxCell>
        <mxCell id="xD9VcQmtIi4IChWEVNGQ-43" value="&lt;span style=&quot;font-size: 13.0667px&quot;&gt;AbstractAutowireCapableBeanFactory&lt;/span&gt;&lt;span style=&quot;font-size: 13.0667px&quot;&gt;.java&lt;/span&gt;&lt;span style=&quot;font-size: 13.0667px&quot;&gt;&lt;br&gt;&lt;/span&gt;&lt;span style=&quot;font-size: 13.0667px&quot;&gt;resolveBeforeInstantiation(beanName, mbdToUse);&lt;/span&gt;" style="rounded=1;whiteSpace=wrap;html=1;fillColor=#e1d5e7;strokeColor=#9673a6;" parent="1" vertex="1">
          <mxGeometry x="1497" y="1270" width="313" height="50" as="geometry" />
        </mxCell>
        <mxCell id="xD9VcQmtIi4IChWEVNGQ-44" style="edgeStyle=orthogonalEdgeStyle;rounded=0;orthogonalLoop=1;jettySize=auto;html=1;exitX=1;exitY=0.5;exitDx=0;exitDy=0;entryX=0.5;entryY=0;entryDx=0;entryDy=0;curved=1;dashed=1;startArrow=classicThin;startFill=1;" parent="1" source="xD9VcQmtIi4IChWEVNGQ-47" target="xD9VcQmtIi4IChWEVNGQ-69" edge="1">
          <mxGeometry relative="1" as="geometry">
            <Array as="points">
              <mxPoint x="2320" y="1197" />
              <mxPoint x="2320" y="1550" />
              <mxPoint x="2430" y="1550" />
            </Array>
          </mxGeometry>
        </mxCell>
        <mxCell id="xD9VcQmtIi4IChWEVNGQ-45" value="实例化前后" style="edgeLabel;html=1;align=center;verticalAlign=middle;resizable=0;points=[];fontStyle=1" parent="xD9VcQmtIi4IChWEVNGQ-44" vertex="1" connectable="0">
          <mxGeometry x="-0.0714" relative="1" as="geometry">
            <mxPoint as="offset" />
          </mxGeometry>
        </mxCell>
        <mxCell id="xD9VcQmtIi4IChWEVNGQ-46" style="edgeStyle=orthogonalEdgeStyle;rounded=0;orthogonalLoop=1;jettySize=auto;html=1;exitX=1;exitY=0.5;exitDx=0;exitDy=0;startArrow=none;startFill=0;" parent="1" source="xD9VcQmtIi4IChWEVNGQ-47" target="xD9VcQmtIi4IChWEVNGQ-133" edge="1">
          <mxGeometry relative="1" as="geometry" />
        </mxCell>
        <mxCell id="xD9VcQmtIi4IChWEVNGQ-47" value="&lt;span style=&quot;font-size: 13.0667px&quot;&gt;在实例化前调用InstantiationAwareBeanPostProcessor的postProcessBeforeInstantiation方法&lt;/span&gt;&lt;span style=&quot;font-size: 13.0667px&quot;&gt;&lt;br&gt;&lt;/span&gt;" style="rounded=1;whiteSpace=wrap;html=1;" parent="1" vertex="1">
          <mxGeometry x="1900" y="1170" width="293" height="55" as="geometry" />
        </mxCell>
        <mxCell id="xD9VcQmtIi4IChWEVNGQ-48" style="edgeStyle=orthogonalEdgeStyle;rounded=0;orthogonalLoop=1;jettySize=auto;html=1;exitX=1;exitY=0.5;exitDx=0;exitDy=0;entryX=0;entryY=0.5;entryDx=0;entryDy=0;" parent="1" source="xD9VcQmtIi4IChWEVNGQ-55" target="xD9VcQmtIi4IChWEVNGQ-56" edge="1">
          <mxGeometry relative="1" as="geometry" />
        </mxCell>
        <mxCell id="xD9VcQmtIi4IChWEVNGQ-49" style="edgeStyle=orthogonalEdgeStyle;rounded=0;orthogonalLoop=1;jettySize=auto;html=1;exitX=1;exitY=0.5;exitDx=0;exitDy=0;entryX=0;entryY=0.5;entryDx=0;entryDy=0;" parent="1" source="xD9VcQmtIi4IChWEVNGQ-55" target="xD9VcQmtIi4IChWEVNGQ-58" edge="1">
          <mxGeometry relative="1" as="geometry" />
        </mxCell>
        <mxCell id="xD9VcQmtIi4IChWEVNGQ-50" style="edgeStyle=orthogonalEdgeStyle;rounded=0;orthogonalLoop=1;jettySize=auto;html=1;exitX=1;exitY=0.5;exitDx=0;exitDy=0;entryX=0;entryY=0.5;entryDx=0;entryDy=0;" parent="1" source="xD9VcQmtIi4IChWEVNGQ-55" target="xD9VcQmtIi4IChWEVNGQ-68" edge="1">
          <mxGeometry relative="1" as="geometry" />
        </mxCell>
        <mxCell id="xD9VcQmtIi4IChWEVNGQ-51" style="edgeStyle=orthogonalEdgeStyle;rounded=0;orthogonalLoop=1;jettySize=auto;html=1;exitX=1;exitY=0.5;exitDx=0;exitDy=0;entryX=0;entryY=0.5;entryDx=0;entryDy=0;startArrow=none;startFill=0;" parent="1" source="xD9VcQmtIi4IChWEVNGQ-55" target="xD9VcQmtIi4IChWEVNGQ-81" edge="1">
          <mxGeometry relative="1" as="geometry" />
        </mxCell>
        <mxCell id="xD9VcQmtIi4IChWEVNGQ-52" style="edgeStyle=orthogonalEdgeStyle;rounded=0;orthogonalLoop=1;jettySize=auto;html=1;exitX=1;exitY=0.5;exitDx=0;exitDy=0;entryX=0;entryY=0.5;entryDx=0;entryDy=0;startArrow=none;startFill=0;" parent="1" source="xD9VcQmtIi4IChWEVNGQ-55" target="xD9VcQmtIi4IChWEVNGQ-103" edge="1">
          <mxGeometry relative="1" as="geometry" />
        </mxCell>
        <mxCell id="xD9VcQmtIi4IChWEVNGQ-53" style="edgeStyle=orthogonalEdgeStyle;rounded=0;orthogonalLoop=1;jettySize=auto;html=1;exitX=1;exitY=0.5;exitDx=0;exitDy=0;entryX=0;entryY=0.5;entryDx=0;entryDy=0;startArrow=none;startFill=0;" parent="1" source="xD9VcQmtIi4IChWEVNGQ-55" target="xD9VcQmtIi4IChWEVNGQ-125" edge="1">
          <mxGeometry relative="1" as="geometry" />
        </mxCell>
        <mxCell id="xD9VcQmtIi4IChWEVNGQ-54" style="edgeStyle=orthogonalEdgeStyle;rounded=0;orthogonalLoop=1;jettySize=auto;html=1;exitX=1;exitY=0.5;exitDx=0;exitDy=0;entryX=0;entryY=0.5;entryDx=0;entryDy=0;" parent="1" source="xD9VcQmtIi4IChWEVNGQ-55" target="xD9VcQmtIi4IChWEVNGQ-140" edge="1">
          <mxGeometry relative="1" as="geometry" />
        </mxCell>
        <mxCell id="xD9VcQmtIi4IChWEVNGQ-55" value="&lt;span style=&quot;font-size: 13.0667px&quot;&gt;AbstractAutowireCapableBeanFactory&lt;/span&gt;&lt;span style=&quot;font-size: 13.0667px&quot;&gt;.java&lt;/span&gt;&lt;span style=&quot;font-size: 13.0667px&quot;&gt;&lt;br&gt;&lt;/span&gt;&lt;span style=&quot;font-size: 13.0667px&quot;&gt;doCreateBean(beanName, mbdToUse, args)&lt;/span&gt;" style="rounded=1;whiteSpace=wrap;html=1;" parent="1" vertex="1">
          <mxGeometry x="1497" y="1370" width="283" height="50" as="geometry" />
        </mxCell>
        <mxCell id="xD9VcQmtIi4IChWEVNGQ-56" value="&lt;span style=&quot;font-size: 13.0667px&quot;&gt;根据推断构造方法并创建类对象实例AbstractAutowireCapableBeanFactory&lt;/span&gt;&lt;span style=&quot;font-size: 13.0667px&quot;&gt;.java&lt;/span&gt;&lt;span style=&quot;font-size: 13.0667px&quot;&gt;&lt;br&gt;&lt;/span&gt;&lt;span style=&quot;font-size: 13.0667px&quot;&gt;createBeanInstance(beanName, mbd, args)&lt;/span&gt;" style="rounded=1;whiteSpace=wrap;html=1;fillColor=#e1d5e7;strokeColor=#9673a6;" parent="1" vertex="1">
          <mxGeometry x="1900" y="1290" width="280" height="60" as="geometry" />
        </mxCell>
        <mxCell id="xD9VcQmtIi4IChWEVNGQ-57" value="可能出现" style="edgeStyle=orthogonalEdgeStyle;rounded=0;orthogonalLoop=1;jettySize=auto;html=1;exitX=1;exitY=0.5;exitDx=0;exitDy=0;" parent="1" source="xD9VcQmtIi4IChWEVNGQ-58" target="xD9VcQmtIi4IChWEVNGQ-60" edge="1">
          <mxGeometry relative="1" as="geometry" />
        </mxCell>
        <mxCell id="xD9VcQmtIi4IChWEVNGQ-58" value="&lt;div&gt;&lt;span style=&quot;font-size: 13.0667px&quot;&gt;判断是否可能出现循环依赖&lt;/span&gt;&lt;/div&gt;&lt;div&gt;&lt;span style=&quot;font-size: 13.0667px&quot;&gt;(mbd.isSingleton() &amp;amp;&amp;amp; this.allowCircularReferences &amp;amp;&amp;amp;&lt;/span&gt;&lt;/div&gt;&lt;div&gt;&lt;span style=&quot;font-size: 13.0667px&quot;&gt;&lt;span&gt;    &lt;/span&gt;isSingletonCurrentlyInCreation(beanName))&lt;/span&gt;&lt;/div&gt;" style="rhombus;whiteSpace=wrap;html=1;fillColor=#e1d5e7;strokeColor=#9673a6;" parent="1" vertex="1">
          <mxGeometry x="1900" y="1646.53" width="390" height="120" as="geometry" />
        </mxCell>
        <mxCell id="xD9VcQmtIi4IChWEVNGQ-59" style="edgeStyle=orthogonalEdgeStyle;rounded=0;orthogonalLoop=1;jettySize=auto;html=1;exitX=1;exitY=0.5;exitDx=0;exitDy=0;entryX=0;entryY=0.5;entryDx=0;entryDy=0;" parent="1" source="xD9VcQmtIi4IChWEVNGQ-60" target="xD9VcQmtIi4IChWEVNGQ-62" edge="1">
          <mxGeometry relative="1" as="geometry" />
        </mxCell>
        <mxCell id="xD9VcQmtIi4IChWEVNGQ-60" value="&lt;span style=&quot;font-size: 13.0667px&quot;&gt;addSingletonFactory(beanName, () -&amp;gt; getEarlyBeanReference(beanName, mbd, bean));&lt;/span&gt;" style="rounded=1;whiteSpace=wrap;html=1;" parent="1" vertex="1">
          <mxGeometry x="2380" y="1676.53" width="280" height="60" as="geometry" />
        </mxCell>
        <mxCell id="xD9VcQmtIi4IChWEVNGQ-61" value="是" style="edgeStyle=orthogonalEdgeStyle;rounded=0;orthogonalLoop=1;jettySize=auto;html=1;exitX=1;exitY=0.5;exitDx=0;exitDy=0;" parent="1" source="xD9VcQmtIi4IChWEVNGQ-62" target="xD9VcQmtIi4IChWEVNGQ-63" edge="1">
          <mxGeometry x="-0.25" relative="1" as="geometry">
            <mxPoint x="3100" y="1706.53" as="targetPoint" />
            <mxPoint as="offset" />
          </mxGeometry>
        </mxCell>
        <mxCell id="xD9VcQmtIi4IChWEVNGQ-62" value="&lt;span style=&quot;font-size: 13.0667px&quot;&gt;&amp;nbsp;() -&amp;gt; getEarlyBeanReference(beanName, mbd, bean)主要用来判断是否需要 AOP 如果需要返回代理Bean对象，如果不需要就返回原始Bean对象&lt;/span&gt;" style="rhombus;whiteSpace=wrap;html=1;" parent="1" vertex="1">
          <mxGeometry x="2700" y="1646.53" width="310" height="120" as="geometry" />
        </mxCell>
        <mxCell id="xD9VcQmtIi4IChWEVNGQ-63" value="&lt;span style=&quot;font-size: 13.0667px&quot;&gt;调用AbstractAutoProxyCreator.java的&lt;/span&gt;&lt;span style=&quot;font-size: 13.0667px&quot;&gt;getEarlyBeanReference方法，创建代理对象&lt;/span&gt;" style="rounded=1;whiteSpace=wrap;html=1;" parent="1" vertex="1">
          <mxGeometry x="3090" y="1676.53" width="280" height="60" as="geometry" />
        </mxCell>
        <mxCell id="xD9VcQmtIi4IChWEVNGQ-64" style="edgeStyle=orthogonalEdgeStyle;rounded=0;orthogonalLoop=1;jettySize=auto;html=1;exitX=1;exitY=0.5;exitDx=0;exitDy=0;entryX=0;entryY=0.5;entryDx=0;entryDy=0;" parent="1" source="xD9VcQmtIi4IChWEVNGQ-68" target="xD9VcQmtIi4IChWEVNGQ-69" edge="1">
          <mxGeometry relative="1" as="geometry" />
        </mxCell>
        <mxCell id="xD9VcQmtIi4IChWEVNGQ-65" style="edgeStyle=orthogonalEdgeStyle;rounded=0;orthogonalLoop=1;jettySize=auto;html=1;exitX=1;exitY=0.5;exitDx=0;exitDy=0;entryX=0;entryY=0.5;entryDx=0;entryDy=0;startArrow=none;startFill=0;" parent="1" source="xD9VcQmtIi4IChWEVNGQ-68" target="xD9VcQmtIi4IChWEVNGQ-70" edge="1">
          <mxGeometry relative="1" as="geometry" />
        </mxCell>
        <mxCell id="xD9VcQmtIi4IChWEVNGQ-66" style="edgeStyle=orthogonalEdgeStyle;rounded=0;orthogonalLoop=1;jettySize=auto;html=1;exitX=1;exitY=0.5;exitDx=0;exitDy=0;entryX=0;entryY=0.5;entryDx=0;entryDy=0;startArrow=none;startFill=0;" parent="1" source="xD9VcQmtIi4IChWEVNGQ-68" target="xD9VcQmtIi4IChWEVNGQ-74" edge="1">
          <mxGeometry relative="1" as="geometry" />
        </mxCell>
        <mxCell id="xD9VcQmtIi4IChWEVNGQ-67" style="edgeStyle=orthogonalEdgeStyle;rounded=0;orthogonalLoop=1;jettySize=auto;html=1;exitX=1;exitY=0.5;exitDx=0;exitDy=0;entryX=0;entryY=0.5;entryDx=0;entryDy=0;startArrow=none;startFill=0;" parent="1" source="xD9VcQmtIi4IChWEVNGQ-68" target="xD9VcQmtIi4IChWEVNGQ-98" edge="1">
          <mxGeometry relative="1" as="geometry" />
        </mxCell>
        <mxCell id="xD9VcQmtIi4IChWEVNGQ-68" value="&lt;span style=&quot;font-size: 13.0667px&quot;&gt;// 填充属性&lt;br&gt;AbstractAutowireCapableBeanFactory&lt;/span&gt;&lt;span style=&quot;font-size: 13.0667px&quot;&gt;.java&lt;/span&gt;&lt;span style=&quot;font-size: 13.0667px&quot;&gt;&lt;br&gt;&lt;/span&gt;&lt;span style=&quot;font-size: 13.0667px&quot;&gt;populateBean(beanName, mbd, instanceWrapper);&lt;/span&gt;" style="rounded=1;whiteSpace=wrap;html=1;fillColor=#e1d5e7;strokeColor=#9673a6;" parent="1" vertex="1">
          <mxGeometry x="1900" y="1966.53" width="280" height="60" as="geometry" />
        </mxCell>
        <mxCell id="xD9VcQmtIi4IChWEVNGQ-69" value="&lt;span style=&quot;font-size: 13.0667px&quot;&gt;在实例化后调用InstantiationAwareBeanPostProcessor的postProcessAfterInstantiation方法&lt;/span&gt;" style="rounded=1;whiteSpace=wrap;html=1;fillColor=#e1d5e7;strokeColor=#9673a6;" parent="1" vertex="1">
          <mxGeometry x="2290" y="1906.53" width="280" height="60" as="geometry" />
        </mxCell>
        <mxCell id="xD9VcQmtIi4IChWEVNGQ-70" value="&lt;span style=&quot;font-size: 13.0667px&quot;&gt;解析@Bean(autowire=Autowire.BY_TYPE/NAME)注解&lt;/span&gt;&lt;br&gt;&lt;span style=&quot;font-size: 13.0667px&quot;&gt;AbstractAutowireCapableBeanFactory&lt;/span&gt;&lt;span style=&quot;font-size: 13.0667px&quot;&gt;.java&lt;br&gt;mbd.getResolvedAutowireMode();&lt;/span&gt;" style="rounded=1;whiteSpace=wrap;html=1;" parent="1" vertex="1">
          <mxGeometry x="2290" y="2046.53" width="331" height="70" as="geometry" />
        </mxCell>
        <mxCell id="xD9VcQmtIi4IChWEVNGQ-71" style="edgeStyle=orthogonalEdgeStyle;rounded=0;orthogonalLoop=1;jettySize=auto;html=1;exitX=1;exitY=0.5;exitDx=0;exitDy=0;entryX=0;entryY=0.5;entryDx=0;entryDy=0;startArrow=none;startFill=0;" parent="1" source="xD9VcQmtIi4IChWEVNGQ-74" target="xD9VcQmtIi4IChWEVNGQ-76" edge="1">
          <mxGeometry relative="1" as="geometry" />
        </mxCell>
        <mxCell id="xD9VcQmtIi4IChWEVNGQ-72" style="edgeStyle=orthogonalEdgeStyle;rounded=0;orthogonalLoop=1;jettySize=auto;html=1;exitX=1;exitY=0.5;exitDx=0;exitDy=0;entryX=0;entryY=0.5;entryDx=0;entryDy=0;startArrow=none;startFill=0;" parent="1" source="xD9VcQmtIi4IChWEVNGQ-74" target="xD9VcQmtIi4IChWEVNGQ-94" edge="1">
          <mxGeometry relative="1" as="geometry" />
        </mxCell>
        <mxCell id="xD9VcQmtIi4IChWEVNGQ-73" value="解析@Autowire&lt;br&gt;等注解" style="edgeLabel;html=1;align=center;verticalAlign=middle;resizable=0;points=[];" parent="xD9VcQmtIi4IChWEVNGQ-72" vertex="1" connectable="0">
          <mxGeometry x="-0.5887" relative="1" as="geometry">
            <mxPoint x="8" as="offset" />
          </mxGeometry>
        </mxCell>
        <mxCell id="xD9VcQmtIi4IChWEVNGQ-74" value="&lt;span style=&quot;font-size: 13.0667px&quot;&gt;AbstractAutowireCapableBeanFactory&lt;/span&gt;&lt;span style=&quot;font-size: 13.0667px&quot;&gt;.java&lt;br&gt;&lt;/span&gt;&lt;span style=&quot;font-size: 13.0667px&quot;&gt;ibp.postProcessProperties(...)&lt;br&gt;&lt;/span&gt;" style="rounded=1;whiteSpace=wrap;html=1;" parent="1" vertex="1">
          <mxGeometry x="2290" y="2206.53" width="310" height="48" as="geometry" />
        </mxCell>
        <mxCell id="xD9VcQmtIi4IChWEVNGQ-75" style="edgeStyle=orthogonalEdgeStyle;rounded=0;orthogonalLoop=1;jettySize=auto;html=1;exitX=1;exitY=0.5;exitDx=0;exitDy=0;entryX=0;entryY=0.5;entryDx=0;entryDy=0;startArrow=none;startFill=0;" parent="1" source="xD9VcQmtIi4IChWEVNGQ-76" target="xD9VcQmtIi4IChWEVNGQ-87" edge="1">
          <mxGeometry relative="1" as="geometry" />
        </mxCell>
        <mxCell id="xD9VcQmtIi4IChWEVNGQ-76" value="AutowiredAnnotationBeanPostProcessor.java&lt;br&gt;postProcessProperties()" style="rounded=1;whiteSpace=wrap;html=1;" parent="1" vertex="1">
          <mxGeometry x="2720" y="2206.53" width="310" height="48" as="geometry" />
        </mxCell>
        <mxCell id="xD9VcQmtIi4IChWEVNGQ-77" style="edgeStyle=orthogonalEdgeStyle;rounded=0;orthogonalLoop=1;jettySize=auto;html=1;exitX=1;exitY=0.5;exitDx=0;exitDy=0;entryX=0;entryY=0.5;entryDx=0;entryDy=0;startArrow=none;startFill=0;" parent="1" source="xD9VcQmtIi4IChWEVNGQ-81" target="xD9VcQmtIi4IChWEVNGQ-83" edge="1">
          <mxGeometry relative="1" as="geometry" />
        </mxCell>
        <mxCell id="xD9VcQmtIi4IChWEVNGQ-78" value="功能之一" style="edgeLabel;html=1;align=center;verticalAlign=middle;resizable=0;points=[];" parent="xD9VcQmtIi4IChWEVNGQ-77" vertex="1" connectable="0">
          <mxGeometry x="0.093" relative="1" as="geometry">
            <mxPoint as="offset" />
          </mxGeometry>
        </mxCell>
        <mxCell id="xD9VcQmtIi4IChWEVNGQ-79" style="edgeStyle=orthogonalEdgeStyle;rounded=0;orthogonalLoop=1;jettySize=auto;html=1;exitX=1;exitY=0.5;exitDx=0;exitDy=0;entryX=0;entryY=0.75;entryDx=0;entryDy=0;startArrow=none;startFill=0;" parent="1" source="xD9VcQmtIi4IChWEVNGQ-81" target="xD9VcQmtIi4IChWEVNGQ-90" edge="1">
          <mxGeometry relative="1" as="geometry" />
        </mxCell>
        <mxCell id="xD9VcQmtIi4IChWEVNGQ-80" value="功能之二" style="edgeLabel;html=1;align=center;verticalAlign=middle;resizable=0;points=[];" parent="xD9VcQmtIi4IChWEVNGQ-79" vertex="1" connectable="0">
          <mxGeometry x="0.002" y="1" relative="1" as="geometry">
            <mxPoint as="offset" />
          </mxGeometry>
        </mxCell>
        <mxCell id="xD9VcQmtIi4IChWEVNGQ-81" value="&lt;span style=&quot;font-size: 13.0667px&quot;&gt;AbstractAutowireCapableBeanFactory&lt;/span&gt;&lt;span style=&quot;font-size: 13.0667px&quot;&gt;.java&lt;/span&gt;&lt;span style=&quot;font-size: 13.0667px&quot;&gt;&lt;br&gt;&lt;/span&gt;&lt;span style=&quot;font-size: 13.0667px&quot;&gt;applyMergedBeanDefinitionPostProcessors(mbd, beanType, beanName);&lt;/span&gt;" style="rounded=1;whiteSpace=wrap;html=1;" parent="1" vertex="1">
          <mxGeometry x="1900" y="1460" width="280" height="60" as="geometry" />
        </mxCell>
        <mxCell id="xD9VcQmtIi4IChWEVNGQ-82" style="edgeStyle=orthogonalEdgeStyle;rounded=0;orthogonalLoop=1;jettySize=auto;html=1;exitX=1;exitY=0.5;exitDx=0;exitDy=0;entryX=0;entryY=0.5;entryDx=0;entryDy=0;startArrow=none;startFill=0;" parent="1" source="xD9VcQmtIi4IChWEVNGQ-83" target="xD9VcQmtIi4IChWEVNGQ-85" edge="1">
          <mxGeometry relative="1" as="geometry" />
        </mxCell>
        <mxCell id="xD9VcQmtIi4IChWEVNGQ-83" value="&lt;span style=&quot;font-size: 13.0667px&quot;&gt;调用AutowiredAnnotationBeanPostProcessor的postProcessMergedBeanDefinition方法&lt;/span&gt;" style="rounded=1;whiteSpace=wrap;html=1;" parent="1" vertex="1">
          <mxGeometry x="2380" y="1350" width="280" height="60" as="geometry" />
        </mxCell>
        <mxCell id="xD9VcQmtIi4IChWEVNGQ-84" style="edgeStyle=orthogonalEdgeStyle;rounded=0;orthogonalLoop=1;jettySize=auto;html=1;startArrow=none;startFill=0;entryX=0.5;entryY=0;entryDx=0;entryDy=0;dashed=1;exitX=0.471;exitY=1.036;exitDx=0;exitDy=0;exitPerimeter=0;" parent="1" source="xD9VcQmtIi4IChWEVNGQ-85" target="xD9VcQmtIi4IChWEVNGQ-88" edge="1">
          <mxGeometry relative="1" as="geometry">
            <mxPoint x="3620" y="2200" as="targetPoint" />
            <Array as="points">
              <mxPoint x="3635" y="2206" />
            </Array>
            <mxPoint x="3590" y="1300" as="sourcePoint" />
          </mxGeometry>
        </mxCell>
        <mxCell id="xD9VcQmtIi4IChWEVNGQ-85" value="&lt;span style=&quot;font-size: 13.0667px&quot;&gt;解析@Autowired，@&lt;/span&gt;&lt;span style=&quot;font-size: 13.0667px&quot;&gt;Value，@???，并放入cache中&lt;/span&gt;&lt;br&gt;&lt;span style=&quot;font-size: 13.0667px&quot;&gt;findAutowiringMetadata(beanName, beanType, null);&lt;/span&gt;" style="rounded=1;whiteSpace=wrap;html=1;" parent="1" vertex="1">
          <mxGeometry x="3480" y="1345" width="330" height="70" as="geometry" />
        </mxCell>
        <mxCell id="xD9VcQmtIi4IChWEVNGQ-86" style="edgeStyle=orthogonalEdgeStyle;rounded=0;orthogonalLoop=1;jettySize=auto;html=1;exitX=1;exitY=0.5;exitDx=0;exitDy=0;entryX=0;entryY=0.5;entryDx=0;entryDy=0;startArrow=none;startFill=0;" parent="1" source="xD9VcQmtIi4IChWEVNGQ-87" target="xD9VcQmtIi4IChWEVNGQ-88" edge="1">
          <mxGeometry relative="1" as="geometry" />
        </mxCell>
        <mxCell id="xD9VcQmtIi4IChWEVNGQ-87" value="findAutowiringMetadata(beanName, bean.getClass(), pvs)" style="rounded=1;whiteSpace=wrap;html=1;" parent="1" vertex="1">
          <mxGeometry x="3090" y="2206.53" width="310" height="48" as="geometry" />
        </mxCell>
        <mxCell id="xD9VcQmtIi4IChWEVNGQ-88" value="直接从cache中获取，因为在之前已经解析过了&lt;br&gt;this.injectionMetadataCache.get(cacheKey);" style="rounded=1;whiteSpace=wrap;html=1;" parent="1" vertex="1">
          <mxGeometry x="3480" y="2206.53" width="310" height="48" as="geometry" />
        </mxCell>
        <mxCell id="xD9VcQmtIi4IChWEVNGQ-89" style="edgeStyle=orthogonalEdgeStyle;rounded=0;orthogonalLoop=1;jettySize=auto;html=1;exitX=1;exitY=0.5;exitDx=0;exitDy=0;startArrow=none;startFill=0;" parent="1" source="xD9VcQmtIi4IChWEVNGQ-90" target="xD9VcQmtIi4IChWEVNGQ-92" edge="1">
          <mxGeometry relative="1" as="geometry" />
        </mxCell>
        <mxCell id="xD9VcQmtIi4IChWEVNGQ-90" value="&lt;span style=&quot;font-size: 13.0667px&quot;&gt;调用CommonAnnotationBeanPostProcessor的postProcessMergedBeanDefinition方法&lt;/span&gt;" style="rounded=1;whiteSpace=wrap;html=1;" parent="1" vertex="1">
          <mxGeometry x="2380" y="1510" width="280" height="60" as="geometry" />
        </mxCell>
        <mxCell id="xD9VcQmtIi4IChWEVNGQ-91" style="edgeStyle=orthogonalEdgeStyle;rounded=0;orthogonalLoop=1;jettySize=auto;html=1;exitX=0.75;exitY=1;exitDx=0;exitDy=0;startArrow=none;startFill=0;dashed=1;entryX=0.5;entryY=0;entryDx=0;entryDy=0;" parent="1" source="xD9VcQmtIi4IChWEVNGQ-92" target="xD9VcQmtIi4IChWEVNGQ-97" edge="1">
          <mxGeometry relative="1" as="geometry">
            <Array as="points">
              <mxPoint x="3728" y="2040" />
              <mxPoint x="4035" y="2040" />
            </Array>
          </mxGeometry>
        </mxCell>
        <mxCell id="a_a16aSGv4rgpMYStxbP-11" style="edgeStyle=orthogonalEdgeStyle;rounded=0;orthogonalLoop=1;jettySize=auto;html=1;exitX=1;exitY=0.5;exitDx=0;exitDy=0;entryX=0;entryY=0.5;entryDx=0;entryDy=0;" edge="1" parent="1" source="xD9VcQmtIi4IChWEVNGQ-92" target="a_a16aSGv4rgpMYStxbP-6">
          <mxGeometry relative="1" as="geometry" />
        </mxCell>
        <mxCell id="xD9VcQmtIi4IChWEVNGQ-92" value="&lt;span style=&quot;font-size: 13.0667px&quot;&gt;解析@A&lt;/span&gt;&lt;span style=&quot;font-size: 13.0667px&quot;&gt;Resource，并放入cache中&lt;/span&gt;&lt;br&gt;&lt;span style=&quot;font-size: 13.0667px&quot;&gt;findResourceMetadata(beanName, beanType, null);&lt;/span&gt;" style="rounded=1;whiteSpace=wrap;html=1;" parent="1" vertex="1">
          <mxGeometry x="3480" y="1505" width="330" height="70" as="geometry" />
        </mxCell>
        <mxCell id="xD9VcQmtIi4IChWEVNGQ-93" style="edgeStyle=orthogonalEdgeStyle;rounded=0;orthogonalLoop=1;jettySize=auto;html=1;exitX=1;exitY=0.5;exitDx=0;exitDy=0;entryX=0;entryY=0.5;entryDx=0;entryDy=0;startArrow=none;startFill=0;" parent="1" source="xD9VcQmtIi4IChWEVNGQ-94" target="xD9VcQmtIi4IChWEVNGQ-96" edge="1">
          <mxGeometry relative="1" as="geometry" />
        </mxCell>
        <mxCell id="xD9VcQmtIi4IChWEVNGQ-94" value="CommonAnnotationBeanPostProcessor.java&lt;br&gt;postProcessProperties()" style="rounded=1;whiteSpace=wrap;html=1;" parent="1" vertex="1">
          <mxGeometry x="2720" y="2300" width="310" height="48" as="geometry" />
        </mxCell>
        <mxCell id="xD9VcQmtIi4IChWEVNGQ-95" style="edgeStyle=orthogonalEdgeStyle;rounded=0;orthogonalLoop=1;jettySize=auto;html=1;exitX=1;exitY=0.5;exitDx=0;exitDy=0;startArrow=none;startFill=0;" parent="1" source="xD9VcQmtIi4IChWEVNGQ-96" target="xD9VcQmtIi4IChWEVNGQ-97" edge="1">
          <mxGeometry relative="1" as="geometry">
            <Array as="points">
              <mxPoint x="3840" y="2344" />
              <mxPoint x="3840" y="2264" />
            </Array>
          </mxGeometry>
        </mxCell>
        <mxCell id="a_a16aSGv4rgpMYStxbP-42" style="edgeStyle=orthogonalEdgeStyle;rounded=0;orthogonalLoop=1;jettySize=auto;html=1;exitX=1;exitY=0.5;exitDx=0;exitDy=0;entryX=0;entryY=0.5;entryDx=0;entryDy=0;" edge="1" parent="1" source="xD9VcQmtIi4IChWEVNGQ-96" target="a_a16aSGv4rgpMYStxbP-41">
          <mxGeometry relative="1" as="geometry">
            <Array as="points">
              <mxPoint x="3840" y="2344" />
              <mxPoint x="3840" y="2392" />
            </Array>
          </mxGeometry>
        </mxCell>
        <mxCell id="xD9VcQmtIi4IChWEVNGQ-96" value="findResourceMetadata(beanName, bean.getClass(), pvs)" style="rounded=1;whiteSpace=wrap;html=1;" parent="1" vertex="1">
          <mxGeometry x="3480" y="2320" width="310" height="48" as="geometry" />
        </mxCell>
        <mxCell id="xD9VcQmtIi4IChWEVNGQ-97" value="直接从cache中获取，因为在之前已经解析过了&lt;br&gt;this.injectionMetadataCache.get(cacheKey)" style="rounded=1;whiteSpace=wrap;html=1;" parent="1" vertex="1">
          <mxGeometry x="3880" y="2240" width="310" height="48" as="geometry" />
        </mxCell>
        <mxCell id="xD9VcQmtIi4IChWEVNGQ-98" value="&lt;span style=&quot;font-size: 13.0667px&quot;&gt;applyPropertyValues(beanName, mbd, bw, pvs);&lt;/span&gt;" style="rounded=1;whiteSpace=wrap;html=1;" parent="1" vertex="1">
          <mxGeometry x="2290" y="2390" width="310" height="48" as="geometry" />
        </mxCell>
        <mxCell id="xD9VcQmtIi4IChWEVNGQ-99" style="edgeStyle=orthogonalEdgeStyle;rounded=0;orthogonalLoop=1;jettySize=auto;html=1;exitX=1;exitY=0.5;exitDx=0;exitDy=0;entryX=0;entryY=0.5;entryDx=0;entryDy=0;startArrow=none;startFill=0;" parent="1" source="xD9VcQmtIi4IChWEVNGQ-103" target="xD9VcQmtIi4IChWEVNGQ-106" edge="1">
          <mxGeometry relative="1" as="geometry" />
        </mxCell>
        <mxCell id="xD9VcQmtIi4IChWEVNGQ-100" style="edgeStyle=orthogonalEdgeStyle;rounded=0;orthogonalLoop=1;jettySize=auto;html=1;exitX=1;exitY=0.5;exitDx=0;exitDy=0;entryX=0;entryY=0.5;entryDx=0;entryDy=0;startArrow=none;startFill=0;" parent="1" source="xD9VcQmtIi4IChWEVNGQ-103" target="xD9VcQmtIi4IChWEVNGQ-109" edge="1">
          <mxGeometry relative="1" as="geometry" />
        </mxCell>
        <mxCell id="xD9VcQmtIi4IChWEVNGQ-101" style="edgeStyle=orthogonalEdgeStyle;rounded=0;orthogonalLoop=1;jettySize=auto;html=1;exitX=1;exitY=0.5;exitDx=0;exitDy=0;entryX=0;entryY=0.5;entryDx=0;entryDy=0;startArrow=none;startFill=0;" parent="1" source="xD9VcQmtIi4IChWEVNGQ-103" target="xD9VcQmtIi4IChWEVNGQ-113" edge="1">
          <mxGeometry relative="1" as="geometry" />
        </mxCell>
        <mxCell id="xD9VcQmtIi4IChWEVNGQ-102" style="edgeStyle=orthogonalEdgeStyle;rounded=0;orthogonalLoop=1;jettySize=auto;html=1;exitX=1;exitY=0.5;exitDx=0;exitDy=0;entryX=0;entryY=0.5;entryDx=0;entryDy=0;startArrow=none;startFill=0;" parent="1" source="xD9VcQmtIi4IChWEVNGQ-103" target="xD9VcQmtIi4IChWEVNGQ-122" edge="1">
          <mxGeometry relative="1" as="geometry" />
        </mxCell>
        <mxCell id="xD9VcQmtIi4IChWEVNGQ-103" value="&lt;span style=&quot;font-size: 13.0667px&quot;&gt;// 初始化bean&lt;br&gt;AbstractAutowireCapableBeanFactory&lt;/span&gt;&lt;span style=&quot;font-size: 13.0667px&quot;&gt;.java&lt;/span&gt;&lt;span style=&quot;font-size: 13.0667px&quot;&gt;&lt;br&gt;&lt;/span&gt;&lt;span style=&quot;font-size: 13.0667px&quot;&gt;initializeBean(beanName, exposedObject, mbd);&lt;/span&gt;" style="rounded=1;whiteSpace=wrap;html=1;fillColor=#e1d5e7;strokeColor=#9673a6;" parent="1" vertex="1">
          <mxGeometry x="1900" y="2740" width="280" height="60" as="geometry" />
        </mxCell>
        <mxCell id="xD9VcQmtIi4IChWEVNGQ-104" style="edgeStyle=orthogonalEdgeStyle;rounded=0;orthogonalLoop=1;jettySize=auto;html=1;exitX=1;exitY=0.5;exitDx=0;exitDy=0;entryX=0;entryY=0.5;entryDx=0;entryDy=0;startArrow=none;startFill=0;" parent="1" source="xD9VcQmtIi4IChWEVNGQ-106" target="xD9VcQmtIi4IChWEVNGQ-107" edge="1">
          <mxGeometry relative="1" as="geometry" />
        </mxCell>
        <mxCell id="xD9VcQmtIi4IChWEVNGQ-105" value="处理aware" style="edgeLabel;html=1;align=center;verticalAlign=middle;resizable=0;points=[];" parent="xD9VcQmtIi4IChWEVNGQ-104" vertex="1" connectable="0">
          <mxGeometry x="-0.2924" relative="1" as="geometry">
            <mxPoint x="8" as="offset" />
          </mxGeometry>
        </mxCell>
        <mxCell id="xD9VcQmtIi4IChWEVNGQ-106" value="&lt;span style=&quot;font-size: 13.0667px&quot;&gt;AbstractAutowireCapableBeanFactory&lt;/span&gt;&lt;span style=&quot;font-size: 13.0667px&quot;&gt;.java&lt;/span&gt;&lt;span style=&quot;font-size: 13.0667px&quot;&gt;&lt;br&gt;&lt;/span&gt;&lt;span style=&quot;font-size: 13.0667px&quot;&gt;invokeAwareMethods(beanName, bean);&lt;/span&gt;" style="rounded=1;whiteSpace=wrap;html=1;fillColor=#e1d5e7;strokeColor=#9673a6;" parent="1" vertex="1">
          <mxGeometry x="2290" y="2530" width="280" height="60" as="geometry" />
        </mxCell>
        <mxCell id="xD9VcQmtIi4IChWEVNGQ-107" value="&lt;span style=&quot;font-size: 13.0667px&quot;&gt;if (bean instanceof BeanNameAware)&lt;br&gt;&lt;/span&gt;if (bean instanceof BeanClassLoaderAware)&lt;br&gt;if (bean instanceof BeanFactoryAware)" style="rounded=1;whiteSpace=wrap;html=1;" parent="1" vertex="1">
          <mxGeometry x="2660" y="2530" width="280" height="60" as="geometry" />
        </mxCell>
        <mxCell id="xD9VcQmtIi4IChWEVNGQ-108" style="edgeStyle=orthogonalEdgeStyle;rounded=0;orthogonalLoop=1;jettySize=auto;html=1;exitX=1;exitY=0.5;exitDx=0;exitDy=0;entryX=0;entryY=0.5;entryDx=0;entryDy=0;startArrow=none;startFill=0;" parent="1" source="xD9VcQmtIi4IChWEVNGQ-109" target="xD9VcQmtIi4IChWEVNGQ-110" edge="1">
          <mxGeometry relative="1" as="geometry" />
        </mxCell>
        <mxCell id="xD9VcQmtIi4IChWEVNGQ-109" value="&lt;span style=&quot;font-size: 13.0667px&quot;&gt;AbstractAutowireCapableBeanFactory&lt;/span&gt;&lt;span style=&quot;font-size: 13.0667px&quot;&gt;.java&lt;/span&gt;&lt;span style=&quot;font-size: 13.0667px&quot;&gt;&lt;br&gt;&lt;/span&gt;&lt;span style=&quot;font-size: 13.0667px&quot;&gt;applyBeanPostProcessorsBeforeInitialization(wrappedBean, beanName);&lt;/span&gt;" style="rounded=1;whiteSpace=wrap;html=1;fillColor=#e1d5e7;strokeColor=#9673a6;" parent="1" vertex="1">
          <mxGeometry x="2290" y="2670" width="370" height="60" as="geometry" />
        </mxCell>
        <mxCell id="xD9VcQmtIi4IChWEVNGQ-110" value="&lt;span style=&quot;font-size: 13.0667px&quot;&gt;调用初始化前的postProcessor&lt;br&gt;AbstractAutowireCapableBeanFactory&lt;/span&gt;&lt;span style=&quot;font-size: 13.0667px&quot;&gt;.java&lt;/span&gt;&lt;span style=&quot;font-size: 13.0667px&quot;&gt;&lt;br&gt;&lt;/span&gt;&lt;span style=&quot;font-size: 13.0667px&quot;&gt;processor.postProcessBeforeInitialization(result, beanName);&lt;/span&gt;" style="rounded=1;whiteSpace=wrap;html=1;" parent="1" vertex="1">
          <mxGeometry x="2700" y="2670" width="370" height="60" as="geometry" />
        </mxCell>
        <mxCell id="xD9VcQmtIi4IChWEVNGQ-111" style="edgeStyle=orthogonalEdgeStyle;rounded=0;orthogonalLoop=1;jettySize=auto;html=1;exitX=1;exitY=0.5;exitDx=0;exitDy=0;entryX=0;entryY=0.5;entryDx=0;entryDy=0;startArrow=none;startFill=0;" parent="1" source="xD9VcQmtIi4IChWEVNGQ-113" target="xD9VcQmtIi4IChWEVNGQ-116" edge="1">
          <mxGeometry relative="1" as="geometry" />
        </mxCell>
        <mxCell id="xD9VcQmtIi4IChWEVNGQ-112" style="edgeStyle=orthogonalEdgeStyle;rounded=0;orthogonalLoop=1;jettySize=auto;html=1;exitX=1;exitY=0.5;exitDx=0;exitDy=0;entryX=0;entryY=0.5;entryDx=0;entryDy=0;startArrow=none;startFill=0;" parent="1" source="xD9VcQmtIi4IChWEVNGQ-113" target="xD9VcQmtIi4IChWEVNGQ-119" edge="1">
          <mxGeometry relative="1" as="geometry" />
        </mxCell>
        <mxCell id="xD9VcQmtIi4IChWEVNGQ-113" value="&lt;span style=&quot;font-size: 13.0667px&quot;&gt;调用初始化方法&lt;br&gt;&lt;/span&gt;&lt;span style=&quot;font-size: 13.0667px&quot;&gt;AbstractAutowireCapableBeanFactory&lt;/span&gt;&lt;span style=&quot;font-size: 13.0667px&quot;&gt;.java&lt;/span&gt;&lt;span style=&quot;font-size: 13.0667px&quot;&gt;&lt;br&gt;&lt;/span&gt;&lt;span style=&quot;font-size: 13.0667px&quot;&gt;invokeInitMethods(beanName, wrappedBean, mbd);&lt;/span&gt;" style="rounded=1;whiteSpace=wrap;html=1;fillColor=#e1d5e7;strokeColor=#9673a6;" parent="1" vertex="1">
          <mxGeometry x="2290" y="2890" width="340" height="50" as="geometry" />
        </mxCell>
        <mxCell id="xD9VcQmtIi4IChWEVNGQ-114" style="edgeStyle=orthogonalEdgeStyle;rounded=0;orthogonalLoop=1;jettySize=auto;html=1;exitX=1;exitY=0.5;exitDx=0;exitDy=0;startArrow=none;startFill=0;" parent="1" source="xD9VcQmtIi4IChWEVNGQ-116" target="xD9VcQmtIi4IChWEVNGQ-117" edge="1">
          <mxGeometry relative="1" as="geometry" />
        </mxCell>
        <mxCell id="xD9VcQmtIi4IChWEVNGQ-115" value="是" style="edgeLabel;html=1;align=center;verticalAlign=middle;resizable=0;points=[];" parent="xD9VcQmtIi4IChWEVNGQ-114" vertex="1" connectable="0">
          <mxGeometry x="-0.4539" y="-2" relative="1" as="geometry">
            <mxPoint x="18" y="-2" as="offset" />
          </mxGeometry>
        </mxCell>
        <mxCell id="xD9VcQmtIi4IChWEVNGQ-116" value="&lt;span style=&quot;font-size: 13.0667px&quot;&gt;是否是实现&lt;/span&gt;&lt;span style=&quot;font-size: 13.0667px&quot;&gt;InitializingBean接口&lt;/span&gt;&lt;br&gt;&lt;span style=&quot;font-size: 13.0667px&quot;&gt;bean instanceof InitializingBean&lt;/span&gt;" style="rhombus;whiteSpace=wrap;html=1;fillColor=#e1d5e7;strokeColor=#9673a6;" parent="1" vertex="1">
          <mxGeometry x="2680" y="2790" width="360" height="100" as="geometry" />
        </mxCell>
        <mxCell id="xD9VcQmtIi4IChWEVNGQ-117" value="&lt;span style=&quot;font-size: 13.0667px&quot;&gt;调用afterPropertiesSet()方法&lt;/span&gt;" style="rounded=1;whiteSpace=wrap;html=1;" parent="1" vertex="1">
          <mxGeometry x="3110" y="2822.5" width="210" height="35" as="geometry" />
        </mxCell>
        <mxCell id="xD9VcQmtIi4IChWEVNGQ-118" style="edgeStyle=orthogonalEdgeStyle;rounded=0;orthogonalLoop=1;jettySize=auto;html=1;exitX=1;exitY=0.5;exitDx=0;exitDy=0;entryX=0;entryY=0.5;entryDx=0;entryDy=0;startArrow=none;startFill=0;" parent="1" source="xD9VcQmtIi4IChWEVNGQ-119" target="xD9VcQmtIi4IChWEVNGQ-120" edge="1">
          <mxGeometry relative="1" as="geometry" />
        </mxCell>
        <mxCell id="xD9VcQmtIi4IChWEVNGQ-119" value="&lt;span style=&quot;font-size: 13.0667px&quot;&gt;调用自定义初始化方法&lt;br&gt;invokeCustomInitMethod(beanName, bean, mbd);&lt;/span&gt;" style="rounded=1;whiteSpace=wrap;html=1;fillColor=#e1d5e7;strokeColor=#9673a6;" parent="1" vertex="1">
          <mxGeometry x="2680" y="2960" width="305" height="50" as="geometry" />
        </mxCell>
        <mxCell id="xD9VcQmtIi4IChWEVNGQ-120" value="&lt;span style=&quot;font-size: 13.0667px&quot;&gt;调用自定义初始化方法&lt;/span&gt;&lt;br&gt;&lt;span style=&quot;font-size: 13.0667px&quot;&gt;methodToInvoke.invoke(bean);&lt;/span&gt;" style="rounded=1;whiteSpace=wrap;html=1;" parent="1" vertex="1">
          <mxGeometry x="3110" y="2960" width="215" height="50" as="geometry" />
        </mxCell>
        <mxCell id="xD9VcQmtIi4IChWEVNGQ-121" style="edgeStyle=orthogonalEdgeStyle;rounded=0;orthogonalLoop=1;jettySize=auto;html=1;exitX=1;exitY=0.5;exitDx=0;exitDy=0;entryX=0;entryY=0.5;entryDx=0;entryDy=0;startArrow=none;startFill=0;" parent="1" source="xD9VcQmtIi4IChWEVNGQ-122" target="xD9VcQmtIi4IChWEVNGQ-123" edge="1">
          <mxGeometry relative="1" as="geometry" />
        </mxCell>
        <mxCell id="xD9VcQmtIi4IChWEVNGQ-122" value="&lt;span style=&quot;font-size: 13.0667px&quot;&gt;AbstractAutowireCapableBeanFactory&lt;/span&gt;&lt;span style=&quot;font-size: 13.0667px&quot;&gt;.java&lt;/span&gt;&lt;span style=&quot;font-size: 13.0667px&quot;&gt;&lt;br&gt;&lt;/span&gt;&lt;span style=&quot;font-size: 13.0667px&quot;&gt;applyBeanPostProcessorsAfterInitialization(wrappedBean, beanName);&lt;/span&gt;" style="rounded=1;whiteSpace=wrap;html=1;fillColor=#e1d5e7;strokeColor=#9673a6;" parent="1" vertex="1">
          <mxGeometry x="2290" y="3110" width="370" height="60" as="geometry" />
        </mxCell>
        <mxCell id="xD9VcQmtIi4IChWEVNGQ-123" value="&lt;span style=&quot;font-size: 13.0667px&quot;&gt;调用初始化后的postProcessor&lt;br&gt;AbstractAutowireCapableBeanFactory&lt;/span&gt;&lt;span style=&quot;font-size: 13.0667px&quot;&gt;.java&lt;/span&gt;&lt;span style=&quot;font-size: 13.0667px&quot;&gt;&lt;br&gt;&lt;/span&gt;&lt;span style=&quot;font-size: 13.0667px&quot;&gt;processor.postProcessAfterInitialization(result, beanName);&lt;/span&gt;" style="rounded=1;whiteSpace=wrap;html=1;" parent="1" vertex="1">
          <mxGeometry x="2700" y="3110" width="370" height="60" as="geometry" />
        </mxCell>
        <mxCell id="xD9VcQmtIi4IChWEVNGQ-124" style="edgeStyle=orthogonalEdgeStyle;rounded=0;orthogonalLoop=1;jettySize=auto;html=1;exitX=1;exitY=0.5;exitDx=0;exitDy=0;entryX=0;entryY=0.5;entryDx=0;entryDy=0;startArrow=none;startFill=0;" parent="1" source="xD9VcQmtIi4IChWEVNGQ-125" target="xD9VcQmtIi4IChWEVNGQ-126" edge="1">
          <mxGeometry relative="1" as="geometry" />
        </mxCell>
        <mxCell id="xD9VcQmtIi4IChWEVNGQ-125" value="&lt;div&gt;&lt;span style=&quot;font-size: 13.0667px&quot;&gt;if (exposedObject == bean) {&lt;/span&gt;&lt;/div&gt;&lt;div&gt;&lt;span style=&quot;font-size: 13.0667px&quot;&gt;&lt;span&gt;     &lt;/span&gt;exposedObject = earlySingletonReference;&lt;/span&gt;&lt;/div&gt;&lt;div&gt;&lt;span style=&quot;font-size: 13.0667px&quot;&gt;&lt;span&gt;    &lt;/span&gt;}&lt;/span&gt;&lt;/div&gt;" style="rounded=1;whiteSpace=wrap;html=1;" parent="1" vertex="1">
          <mxGeometry x="1900" y="3340" width="280" height="60" as="geometry" />
        </mxCell>
        <mxCell id="xD9VcQmtIi4IChWEVNGQ-126" value="&lt;span style=&quot;font-size: 13.0667px&quot;&gt;如果这个bean同时存在循环依赖和AOP的情况需要保证A都是代理对象&lt;/span&gt;" style="rounded=1;whiteSpace=wrap;html=1;" parent="1" vertex="1">
          <mxGeometry x="2290" y="3340" width="280" height="60" as="geometry" />
        </mxCell>
        <mxCell id="xD9VcQmtIi4IChWEVNGQ-127" style="edgeStyle=orthogonalEdgeStyle;rounded=0;orthogonalLoop=1;jettySize=auto;html=1;exitX=0.5;exitY=1;exitDx=0;exitDy=0;" parent="1" source="xD9VcQmtIi4IChWEVNGQ-131" target="xD9VcQmtIi4IChWEVNGQ-32" edge="1">
          <mxGeometry relative="1" as="geometry" />
        </mxCell>
        <mxCell id="xD9VcQmtIi4IChWEVNGQ-128" value="缓存中没有" style="edgeLabel;html=1;align=center;verticalAlign=middle;resizable=0;points=[];" parent="xD9VcQmtIi4IChWEVNGQ-127" vertex="1" connectable="0">
          <mxGeometry x="0.0333" relative="1" as="geometry">
            <mxPoint as="offset" />
          </mxGeometry>
        </mxCell>
        <mxCell id="xD9VcQmtIi4IChWEVNGQ-129" value="" style="edgeStyle=orthogonalEdgeStyle;rounded=0;orthogonalLoop=1;jettySize=auto;html=1;" parent="1" source="xD9VcQmtIi4IChWEVNGQ-131" target="xD9VcQmtIi4IChWEVNGQ-132" edge="1">
          <mxGeometry relative="1" as="geometry" />
        </mxCell>
        <mxCell id="xD9VcQmtIi4IChWEVNGQ-130" value="有" style="edgeLabel;html=1;align=center;verticalAlign=middle;resizable=0;points=[];" parent="xD9VcQmtIi4IChWEVNGQ-129" vertex="1" connectable="0">
          <mxGeometry x="-0.6" y="-1" relative="1" as="geometry">
            <mxPoint x="14" y="-1" as="offset" />
          </mxGeometry>
        </mxCell>
        <mxCell id="xD9VcQmtIi4IChWEVNGQ-131" value="&lt;div&gt;DefaultSingletonBeanRegistry.java&lt;/div&gt;&lt;div&gt;this.singletonObjects.get(beanName);&lt;/div&gt;" style="rhombus;whiteSpace=wrap;html=1;fillColor=#f8cecc;strokeColor=#b85450;" parent="1" vertex="1">
          <mxGeometry x="777.5" y="1030" width="265" height="40" as="geometry" />
        </mxCell>
        <mxCell id="xD9VcQmtIi4IChWEVNGQ-132" value="&lt;span style=&quot;font-size: 11px&quot;&gt;直接返回&lt;br&gt;return singletonObject;&lt;/span&gt;" style="rounded=1;whiteSpace=wrap;html=1;" parent="1" vertex="1">
          <mxGeometry x="1110" y="1020" width="240" height="60" as="geometry" />
        </mxCell>
        <mxCell id="xD9VcQmtIi4IChWEVNGQ-133" value="&lt;span style=&quot;font-size: 13.0667px&quot;&gt;如果实例化前置处理器返回一个bean的实例对象，则需要在这里调用，初始化后置方法，已完成需要被代理 bean 的代理操作&lt;/span&gt;" style="rounded=1;whiteSpace=wrap;html=1;" parent="1" vertex="1">
          <mxGeometry x="2298.5" y="1170" width="293" height="55" as="geometry" />
        </mxCell>
        <mxCell id="xD9VcQmtIi4IChWEVNGQ-134" style="edgeStyle=orthogonalEdgeStyle;rounded=0;orthogonalLoop=1;jettySize=auto;html=1;exitX=1;exitY=0.5;exitDx=0;exitDy=0;entryX=0;entryY=0.5;entryDx=0;entryDy=0;startArrow=none;startFill=0;" parent="1" source="xD9VcQmtIi4IChWEVNGQ-136" target="xD9VcQmtIi4IChWEVNGQ-39" edge="1">
          <mxGeometry relative="1" as="geometry" />
        </mxCell>
        <mxCell id="xD9VcQmtIi4IChWEVNGQ-135" value="直接调用创建bean的方法" style="edgeLabel;html=1;align=center;verticalAlign=middle;resizable=0;points=[];" parent="xD9VcQmtIi4IChWEVNGQ-134" vertex="1" connectable="0">
          <mxGeometry x="-0.1723" relative="1" as="geometry">
            <mxPoint as="offset" />
          </mxGeometry>
        </mxCell>
        <mxCell id="xD9VcQmtIi4IChWEVNGQ-136" value="&lt;div&gt;&lt;span style=&quot;font-size: 11px ; background-color: rgb(255 , 255 , 255)&quot;&gt;调用上文传来的lambda函数&lt;/span&gt;&lt;br&gt;&lt;/div&gt;&lt;div&gt;DefaultSingletonBeanRegistry.java&lt;/div&gt;&lt;div&gt;singletonFactory.getObject()&lt;/div&gt;" style="rounded=1;whiteSpace=wrap;html=1;" parent="1" vertex="1">
          <mxGeometry x="787.5" y="1430" width="240" height="60" as="geometry" />
        </mxCell>
        <mxCell id="xD9VcQmtIi4IChWEVNGQ-137" value="" style="shape=flexArrow;endArrow=classic;startArrow=classic;html=1;rounded=0;" parent="1" edge="1">
          <mxGeometry width="100" height="100" relative="1" as="geometry">
            <mxPoint x="3420" y="3860" as="sourcePoint" />
            <mxPoint x="3420" y="1010" as="targetPoint" />
          </mxGeometry>
        </mxCell>
        <mxCell id="xD9VcQmtIi4IChWEVNGQ-138" style="edgeStyle=orthogonalEdgeStyle;rounded=0;orthogonalLoop=1;jettySize=auto;html=1;exitX=1;exitY=0.5;exitDx=0;exitDy=0;entryX=0;entryY=0.5;entryDx=0;entryDy=0;" parent="1" source="xD9VcQmtIi4IChWEVNGQ-140" target="xD9VcQmtIi4IChWEVNGQ-141" edge="1">
          <mxGeometry relative="1" as="geometry" />
        </mxCell>
        <mxCell id="xD9VcQmtIi4IChWEVNGQ-139" style="edgeStyle=orthogonalEdgeStyle;rounded=0;orthogonalLoop=1;jettySize=auto;html=1;exitX=1;exitY=0.5;exitDx=0;exitDy=0;entryX=0;entryY=0.5;entryDx=0;entryDy=0;" parent="1" source="xD9VcQmtIi4IChWEVNGQ-140" target="xD9VcQmtIi4IChWEVNGQ-142" edge="1">
          <mxGeometry relative="1" as="geometry" />
        </mxCell>
        <mxCell id="xD9VcQmtIi4IChWEVNGQ-140" value="&lt;span style=&quot;font-size: 13.0667px&quot;&gt;// 注册bean销毁方法&lt;br&gt;AbstractAutowireCapableBeanFactory&lt;/span&gt;&lt;span style=&quot;font-size: 13.0667px&quot;&gt;.java&lt;br&gt;&lt;/span&gt;&lt;span style=&quot;font-size: 13.0667px&quot;&gt;registerDisposableBeanIfNecessary(beanName, bean, mbd);&lt;/span&gt;" style="rounded=1;whiteSpace=wrap;html=1;" parent="1" vertex="1">
          <mxGeometry x="1900" y="3590" width="280" height="60" as="geometry" />
        </mxCell>
        <mxCell id="xD9VcQmtIi4IChWEVNGQ-141" value="&lt;span style=&quot;font-size: 13.0667px&quot;&gt;实现DisposableBean接口重写destory方法&lt;/span&gt;" style="rounded=1;whiteSpace=wrap;html=1;" parent="1" vertex="1">
          <mxGeometry x="2290" y="3530" width="280" height="60" as="geometry" />
        </mxCell>
        <mxCell id="xD9VcQmtIi4IChWEVNGQ-142" value="&lt;span style=&quot;font-size: 13.0667px&quot;&gt;自定义destory方法&lt;/span&gt;" style="rounded=1;whiteSpace=wrap;html=1;" parent="1" vertex="1">
          <mxGeometry x="2290" y="3660" width="280" height="60" as="geometry" />
        </mxCell>
        <mxCell id="a_a16aSGv4rgpMYStxbP-2" style="edgeStyle=orthogonalEdgeStyle;rounded=0;orthogonalLoop=1;jettySize=auto;html=1;exitX=0.5;exitY=1;exitDx=0;exitDy=0;entryX=0.5;entryY=0;entryDx=0;entryDy=0;" edge="1" parent="1" source="a_a16aSGv4rgpMYStxbP-6" target="a_a16aSGv4rgpMYStxbP-10">
          <mxGeometry relative="1" as="geometry">
            <mxPoint x="4165" y="1565" as="targetPoint" />
          </mxGeometry>
        </mxCell>
        <mxCell id="a_a16aSGv4rgpMYStxbP-3" value="为空或者class变了" style="edgeLabel;html=1;align=center;verticalAlign=middle;resizable=0;points=[];" vertex="1" connectable="0" parent="a_a16aSGv4rgpMYStxbP-2">
          <mxGeometry x="-0.0476" y="1" relative="1" as="geometry">
            <mxPoint as="offset" />
          </mxGeometry>
        </mxCell>
        <mxCell id="a_a16aSGv4rgpMYStxbP-4" style="edgeStyle=orthogonalEdgeStyle;rounded=0;orthogonalLoop=1;jettySize=auto;html=1;exitX=1;exitY=0.5;exitDx=0;exitDy=0;" edge="1" parent="1" source="a_a16aSGv4rgpMYStxbP-6" target="a_a16aSGv4rgpMYStxbP-7">
          <mxGeometry relative="1" as="geometry" />
        </mxCell>
        <mxCell id="a_a16aSGv4rgpMYStxbP-5" value="有" style="edgeLabel;html=1;align=center;verticalAlign=middle;resizable=0;points=[];" vertex="1" connectable="0" parent="a_a16aSGv4rgpMYStxbP-4">
          <mxGeometry x="-0.1619" y="-3" relative="1" as="geometry">
            <mxPoint as="offset" />
          </mxGeometry>
        </mxCell>
        <mxCell id="a_a16aSGv4rgpMYStxbP-6" value="&lt;span style=&quot;font-size: 13.0667px&quot;&gt;尝试从缓存中获取&lt;/span&gt;&lt;br&gt;&lt;span style=&quot;font-size: 13.0667px&quot;&gt;CommonAnnotationBeanPostProcessor.java&lt;br&gt;this.injectionMetadataCache.get(cacheKey)&lt;br&gt;&lt;/span&gt;" style="rhombus;whiteSpace=wrap;html=1;" vertex="1" parent="1">
          <mxGeometry x="4000" y="1392.5" width="330" height="125" as="geometry" />
        </mxCell>
        <mxCell id="a_a16aSGv4rgpMYStxbP-7" value="&lt;span style=&quot;font-size: 13.0667px&quot;&gt;return metadata&lt;/span&gt;" style="rounded=1;whiteSpace=wrap;html=1;" vertex="1" parent="1">
          <mxGeometry x="4410" y="1432.5" width="130" height="45" as="geometry" />
        </mxCell>
        <mxCell id="a_a16aSGv4rgpMYStxbP-8" style="edgeStyle=orthogonalEdgeStyle;rounded=0;orthogonalLoop=1;jettySize=auto;html=1;exitX=1;exitY=0.5;exitDx=0;exitDy=0;entryX=0;entryY=0.5;entryDx=0;entryDy=0;" edge="1" parent="1" source="a_a16aSGv4rgpMYStxbP-10" target="a_a16aSGv4rgpMYStxbP-19">
          <mxGeometry relative="1" as="geometry">
            <mxPoint x="4460.000000000001" y="1590" as="targetPoint" />
            <Array as="points">
              <mxPoint x="4400" y="1670" />
              <mxPoint x="4400" y="1595" />
            </Array>
          </mxGeometry>
        </mxCell>
        <mxCell id="a_a16aSGv4rgpMYStxbP-9" style="edgeStyle=orthogonalEdgeStyle;rounded=0;orthogonalLoop=1;jettySize=auto;html=1;exitX=1;exitY=0.5;exitDx=0;exitDy=0;entryX=0;entryY=0.5;entryDx=0;entryDy=0;" edge="1" parent="1" source="a_a16aSGv4rgpMYStxbP-10" target="a_a16aSGv4rgpMYStxbP-21">
          <mxGeometry relative="1" as="geometry">
            <Array as="points">
              <mxPoint x="4400" y="1670" />
              <mxPoint x="4400" y="1772" />
            </Array>
            <mxPoint x="4460.000000000001" y="1766.5299999999997" as="targetPoint" />
          </mxGeometry>
        </mxCell>
        <mxCell id="a_a16aSGv4rgpMYStxbP-13" style="edgeStyle=orthogonalEdgeStyle;rounded=0;orthogonalLoop=1;jettySize=auto;html=1;exitX=0.5;exitY=1;exitDx=0;exitDy=0;" edge="1" parent="1" source="a_a16aSGv4rgpMYStxbP-10" target="a_a16aSGv4rgpMYStxbP-12">
          <mxGeometry relative="1" as="geometry" />
        </mxCell>
        <mxCell id="a_a16aSGv4rgpMYStxbP-10" value="&lt;span style=&quot;font-size: 13.0667px&quot;&gt;CommonAnnotationBeanPostProcessor.java&lt;/span&gt;&lt;br style=&quot;font-size: 13.0667px&quot;&gt;&lt;span style=&quot;font-size: 13.0667px&quot;&gt;metadata = buildResourceMetadata(clazz);&lt;/span&gt;" style="rounded=1;whiteSpace=wrap;html=1;" vertex="1" parent="1">
          <mxGeometry x="4000" y="1635" width="330" height="70" as="geometry" />
        </mxCell>
        <mxCell id="a_a16aSGv4rgpMYStxbP-40" style="edgeStyle=orthogonalEdgeStyle;rounded=0;orthogonalLoop=1;jettySize=auto;html=1;exitX=0.5;exitY=1;exitDx=0;exitDy=0;entryX=0;entryY=1;entryDx=0;entryDy=0;dashed=1;" edge="1" parent="1" source="a_a16aSGv4rgpMYStxbP-12" target="a_a16aSGv4rgpMYStxbP-6">
          <mxGeometry relative="1" as="geometry">
            <Array as="points">
              <mxPoint x="4165" y="1900" />
              <mxPoint x="3980" y="1900" />
              <mxPoint x="3980" y="1570" />
              <mxPoint x="4082" y="1570" />
            </Array>
          </mxGeometry>
        </mxCell>
        <mxCell id="a_a16aSGv4rgpMYStxbP-12" value="&lt;span style=&quot;font-size: 13.0667px&quot;&gt;放入缓存中&lt;/span&gt;&lt;br&gt;&lt;span style=&quot;font-size: 13.0667px&quot;&gt;CommonAnnotationBeanPostProcessor.java&lt;/span&gt;&lt;br style=&quot;font-size: 13.0667px&quot;&gt;this.injectionMetadataCache.put(cacheKey, metadata);" style="rounded=1;whiteSpace=wrap;html=1;" vertex="1" parent="1">
          <mxGeometry x="4000" y="1790" width="330" height="70" as="geometry" />
        </mxCell>
        <mxCell id="a_a16aSGv4rgpMYStxbP-18" style="edgeStyle=orthogonalEdgeStyle;rounded=0;orthogonalLoop=1;jettySize=auto;html=1;exitX=1;exitY=0.5;exitDx=0;exitDy=0;entryX=0;entryY=0.5;entryDx=0;entryDy=0;" edge="1" parent="1" source="a_a16aSGv4rgpMYStxbP-19" target="a_a16aSGv4rgpMYStxbP-24">
          <mxGeometry relative="1" as="geometry" />
        </mxCell>
        <mxCell id="a_a16aSGv4rgpMYStxbP-19" value="&lt;span style=&quot;font-size: 13.0667px&quot;&gt;解析当前bean的field&lt;br&gt;&lt;/span&gt;&lt;span style=&quot;font-size: 13.0667px&quot;&gt;CommonAnnotationBeanPostProcessor&lt;/span&gt;&lt;span style=&quot;font-size: 13.0667px&quot;&gt;.java&lt;br&gt;&lt;/span&gt;&lt;span style=&quot;font-size: 13.0667px&quot;&gt;ReflectionUtils.doWithLocalFields&lt;/span&gt;&lt;span style=&quot;color: rgba(0 , 0 , 0 , 0) ; font-family: monospace ; font-size: 0px&quot;&gt;%3CmxGraphModel%3E%3Croot%3E%3CmxCell%20id%3D%220%22%2F%3E%3CmxCell%20id%3D%221%22%20parent%3D%220%22%2F%3E%3CmxCell%20id%3D%222%22%20value%3D%22%26lt%3Bspan%20style%3D%26quot%3Bfont-size%3A%2013.0667px%26quot%3B%26gt%3BAutowiredAnnotationBeanPostProcessor.java%26lt%3B%2Fspan%26gt%3B%26lt%3Bbr%20style%3D%26quot%3Bfont-size%3A%2013.0667px%26quot%3B%26gt%3Bmetadata%20%3D%20buildAutowiringMetadata(clazz)%3B%22%20style%3D%22rounded%3D1%3BwhiteSpace%3Dwrap%3Bhtml%3D1%3B%22%20vertex%3D%221%22%20parent%3D%221%22%3E%3CmxGeometry%20x%3D%224030%22%20y%3D%221540%22%20width%3D%22330%22%20height%3D%2270%22%20as%3D%22geometry%22%2F%3E%3C%2FmxCell%3E%3C%2Froot%3E%3C%2FmxGraphModel%3E&lt;/span&gt;" style="rounded=1;whiteSpace=wrap;html=1;" vertex="1" parent="1">
          <mxGeometry x="4470" y="1560" width="330" height="70" as="geometry" />
        </mxCell>
        <mxCell id="a_a16aSGv4rgpMYStxbP-20" style="edgeStyle=orthogonalEdgeStyle;rounded=0;orthogonalLoop=1;jettySize=auto;html=1;exitX=1;exitY=0.5;exitDx=0;exitDy=0;entryX=0;entryY=0.5;entryDx=0;entryDy=0;" edge="1" parent="1" source="a_a16aSGv4rgpMYStxbP-21" target="a_a16aSGv4rgpMYStxbP-27">
          <mxGeometry relative="1" as="geometry" />
        </mxCell>
        <mxCell id="a_a16aSGv4rgpMYStxbP-21" value="&lt;span style=&quot;font-size: 13.0667px&quot;&gt;解析当前bean的method&lt;br&gt;&lt;/span&gt;&lt;span style=&quot;font-size: 13.0667px&quot;&gt;CommonAnnotationBeanPostProcessor&lt;/span&gt;&lt;span style=&quot;font-size: 13.0667px&quot;&gt;.java&lt;br&gt;&lt;/span&gt;&lt;span style=&quot;font-size: 13.0667px&quot;&gt;ReflectionUtils.&lt;/span&gt;&lt;span style=&quot;font-size: 13.0667px&quot;&gt;doWithLocalMethods&lt;/span&gt;&lt;font color=&quot;rgba(0, 0, 0, 0)&quot; face=&quot;monospace&quot;&gt;&lt;span style=&quot;font-size: 0px&quot;&gt;%3CmxGraphModel%3E%3Croot%3E%3CmxCell%20id%3D%220%22%2F%3E%3CmxCell%20id%3D%221%22%20parent%3D%220%22%2F%3E%3CmxCell%20id%3D%222%22%20value%3D%22%26lt%3Bspan%20style%3D%26quot%3Bfont-size%3A%2013.0667px%26quot%3B%26gt%3BAutowiredAnnotationBeanPostProcessor.java%26lt%3B%2Fspan%26gt%3B%26lt%3Bbr%20style%3D%26quot%3Bfont-size%3A%2013.0667px%26quot%3B%26gt%3Bmetadata%20%3D%20buildAutowiringMetadata(clazz)%3B%22%20style%3D%22rounded%3D1%3BwhiteSpace%3Dwrap%3Bhtml%3D1%3B%22%20vertex%3D%221%22%20parent%3D%221%22%3E%3CmxGeometry%20x%3D%224030%22%20y%3D%221540%22%20width%3D%22330%22%20height%3D%2270%22%20as%3D%22geometry%22%2F%3E%3C%2FmxCell%3E%3C%2Froot%3E%3C%2FmxGraphModel%3E&lt;/span&gt;&lt;/font&gt;" style="rounded=1;whiteSpace=wrap;html=1;" vertex="1" parent="1">
          <mxGeometry x="4470" y="1736.53" width="330" height="70" as="geometry" />
        </mxCell>
        <mxCell id="a_a16aSGv4rgpMYStxbP-22" style="edgeStyle=orthogonalEdgeStyle;rounded=0;orthogonalLoop=1;jettySize=auto;html=1;exitX=1;exitY=0.5;exitDx=0;exitDy=0;entryX=0;entryY=0.5;entryDx=0;entryDy=0;" edge="1" parent="1" source="a_a16aSGv4rgpMYStxbP-24" target="a_a16aSGv4rgpMYStxbP-29">
          <mxGeometry relative="1" as="geometry" />
        </mxCell>
        <mxCell id="a_a16aSGv4rgpMYStxbP-23" value="有" style="edgeLabel;html=1;align=center;verticalAlign=middle;resizable=0;points=[];" vertex="1" connectable="0" parent="a_a16aSGv4rgpMYStxbP-22">
          <mxGeometry x="-0.4605" y="1" relative="1" as="geometry">
            <mxPoint x="17" y="1" as="offset" />
          </mxGeometry>
        </mxCell>
        <mxCell id="a_a16aSGv4rgpMYStxbP-24" value="&lt;span style=&quot;font-size: 13.0667px&quot;&gt;判断field上是否有@Resource注解&lt;br&gt;&lt;/span&gt;&lt;span style=&quot;font-size: 13.0667px&quot;&gt;CommonAnnotationBeanPostProcessor&lt;/span&gt;&lt;span style=&quot;font-size: 13.0667px&quot;&gt;.java&lt;br&gt;&lt;/span&gt;&lt;span style=&quot;font-size: 13.0667px&quot;&gt;field.isAnnotationPresent(Resource.class)&lt;/span&gt;" style="rhombus;whiteSpace=wrap;html=1;" vertex="1" parent="1">
          <mxGeometry x="4890" y="1560" width="330" height="70" as="geometry" />
        </mxCell>
        <mxCell id="a_a16aSGv4rgpMYStxbP-25" style="edgeStyle=orthogonalEdgeStyle;rounded=0;orthogonalLoop=1;jettySize=auto;html=1;exitX=1;exitY=0.5;exitDx=0;exitDy=0;entryX=0;entryY=0.5;entryDx=0;entryDy=0;" edge="1" parent="1" source="a_a16aSGv4rgpMYStxbP-27" target="a_a16aSGv4rgpMYStxbP-31">
          <mxGeometry relative="1" as="geometry" />
        </mxCell>
        <mxCell id="a_a16aSGv4rgpMYStxbP-26" value="有" style="edgeLabel;html=1;align=center;verticalAlign=middle;resizable=0;points=[];" vertex="1" connectable="0" parent="a_a16aSGv4rgpMYStxbP-25">
          <mxGeometry x="-0.2871" y="2" relative="1" as="geometry">
            <mxPoint as="offset" />
          </mxGeometry>
        </mxCell>
        <mxCell id="a_a16aSGv4rgpMYStxbP-27" value="&lt;span style=&quot;font-size: 13.0667px&quot;&gt;判断field上是否有@&lt;/span&gt;&lt;span style=&quot;font-size: 13.0667px&quot;&gt;&amp;nbsp;Resource&lt;/span&gt;&lt;span style=&quot;font-size: 13.0667px&quot;&gt;注解&lt;br&gt;&lt;/span&gt;&lt;span style=&quot;font-size: 13.0667px&quot;&gt;CommonAnnotationBeanPostProcessor&lt;/span&gt;&lt;span style=&quot;font-size: 13.0667px&quot;&gt;.java&lt;br&gt;&lt;/span&gt;&lt;span style=&quot;font-size: 13.0667px&quot;&gt;field.isAnnotationPresent(Resource.class)&lt;/span&gt;" style="rhombus;whiteSpace=wrap;html=1;" vertex="1" parent="1">
          <mxGeometry x="4900" y="1736.53" width="330" height="70" as="geometry" />
        </mxCell>
        <mxCell id="a_a16aSGv4rgpMYStxbP-28" style="edgeStyle=orthogonalEdgeStyle;rounded=0;orthogonalLoop=1;jettySize=auto;html=1;exitX=1;exitY=0.5;exitDx=0;exitDy=0;entryX=0;entryY=0.5;entryDx=0;entryDy=0;" edge="1" parent="1" source="a_a16aSGv4rgpMYStxbP-29" target="a_a16aSGv4rgpMYStxbP-33">
          <mxGeometry relative="1" as="geometry" />
        </mxCell>
        <mxCell id="a_a16aSGv4rgpMYStxbP-29" value="&lt;span style=&quot;font-size: 13.0667px&quot;&gt;获取@Autowire注解中的require的值&lt;br&gt;AutowiredAnnotationBeanPostProcessor.java&lt;br&gt;&lt;/span&gt;&lt;span style=&quot;font-size: 13.0667px&quot;&gt;boolean required = determineRequiredStatus(ann);&lt;/span&gt;" style="rounded=1;whiteSpace=wrap;html=1;" vertex="1" parent="1">
          <mxGeometry x="5340" y="1560" width="330" height="70" as="geometry" />
        </mxCell>
        <mxCell id="a_a16aSGv4rgpMYStxbP-30" style="edgeStyle=orthogonalEdgeStyle;rounded=0;orthogonalLoop=1;jettySize=auto;html=1;exitX=1;exitY=0.5;exitDx=0;exitDy=0;entryX=0;entryY=0.5;entryDx=0;entryDy=0;" edge="1" parent="1" source="a_a16aSGv4rgpMYStxbP-31" target="a_a16aSGv4rgpMYStxbP-35">
          <mxGeometry relative="1" as="geometry" />
        </mxCell>
        <mxCell id="a_a16aSGv4rgpMYStxbP-31" value="&lt;span style=&quot;font-size: 13.0667px&quot;&gt;获取@Autowire注解中的require的值&lt;br&gt;AutowiredAnnotationBeanPostProcessor.java&lt;br&gt;&lt;/span&gt;&lt;span style=&quot;font-size: 13.0667px&quot;&gt;boolean required = determineRequiredStatus(ann);&lt;/span&gt;" style="rounded=1;whiteSpace=wrap;html=1;" vertex="1" parent="1">
          <mxGeometry x="5340" y="1736.53" width="330" height="70" as="geometry" />
        </mxCell>
        <mxCell id="a_a16aSGv4rgpMYStxbP-32" style="edgeStyle=orthogonalEdgeStyle;rounded=0;orthogonalLoop=1;jettySize=auto;html=1;exitX=1;exitY=0.5;exitDx=0;exitDy=0;entryX=0;entryY=0.5;entryDx=0;entryDy=0;" edge="1" parent="1" source="a_a16aSGv4rgpMYStxbP-33" target="a_a16aSGv4rgpMYStxbP-36">
          <mxGeometry relative="1" as="geometry" />
        </mxCell>
        <mxCell id="a_a16aSGv4rgpMYStxbP-33" value="&lt;span style=&quot;font-size: 13.0667px&quot;&gt;封装成&lt;/span&gt;&lt;span style=&quot;font-size: 13.0667px&quot;&gt;AutowiredFieldElement放入集合中&lt;/span&gt;&lt;span style=&quot;font-size: 13.0667px&quot;&gt;&lt;br&gt;AutowiredAnnotationBeanPostProcessor.java&lt;br&gt;&lt;/span&gt;&lt;span style=&quot;font-size: 13.0667px&quot;&gt;currElements.add(new ResourceElement(field, field, null));&lt;/span&gt;" style="rounded=1;whiteSpace=wrap;html=1;" vertex="1" parent="1">
          <mxGeometry x="5770" y="1560" width="330" height="70" as="geometry" />
        </mxCell>
        <mxCell id="a_a16aSGv4rgpMYStxbP-34" style="edgeStyle=orthogonalEdgeStyle;rounded=0;orthogonalLoop=1;jettySize=auto;html=1;exitX=1;exitY=0.5;exitDx=0;exitDy=0;entryX=0;entryY=0.5;entryDx=0;entryDy=0;" edge="1" parent="1" source="a_a16aSGv4rgpMYStxbP-35" target="a_a16aSGv4rgpMYStxbP-36">
          <mxGeometry relative="1" as="geometry">
            <mxPoint x="6210" y="1771.571428571429" as="targetPoint" />
          </mxGeometry>
        </mxCell>
        <mxCell id="a_a16aSGv4rgpMYStxbP-35" value="&lt;span style=&quot;font-size: 13.0667px&quot;&gt;封装成&lt;/span&gt;&lt;span style=&quot;font-size: 13.0667px&quot;&gt;AutowiredMethodElement&lt;/span&gt;&lt;span style=&quot;font-size: 13.0667px&quot;&gt;放入集合中&lt;/span&gt;&lt;span style=&quot;font-size: 13.0667px&quot;&gt;&lt;br&gt;AutowiredAnnotationBeanPostProcessor.java&lt;br&gt;&lt;/span&gt;&lt;span style=&quot;font-size: 13.0667px&quot;&gt;currElements.add(new EjbRefElement(method, bridgedMethod, pd));&lt;/span&gt;" style="rounded=1;whiteSpace=wrap;html=1;" vertex="1" parent="1">
          <mxGeometry x="5770" y="1736.53" width="330" height="70" as="geometry" />
        </mxCell>
        <mxCell id="a_a16aSGv4rgpMYStxbP-39" style="edgeStyle=orthogonalEdgeStyle;rounded=0;orthogonalLoop=1;jettySize=auto;html=1;exitX=0.5;exitY=0;exitDx=0;exitDy=0;entryX=0.5;entryY=0;entryDx=0;entryDy=0;dashed=1;" edge="1" parent="1" source="a_a16aSGv4rgpMYStxbP-36" target="a_a16aSGv4rgpMYStxbP-6">
          <mxGeometry relative="1" as="geometry" />
        </mxCell>
        <mxCell id="a_a16aSGv4rgpMYStxbP-36" value="&lt;span style=&quot;font-size: 13.0667px&quot;&gt;解析的出来的结果放入&lt;br&gt;&lt;/span&gt;&lt;span style=&quot;font-size: 13.0667px&quot;&gt;injectionMetadataCache&lt;/span&gt;缓存中" style="rounded=1;whiteSpace=wrap;html=1;" vertex="1" parent="1">
          <mxGeometry x="6170" y="1660" width="250" height="60" as="geometry" />
        </mxCell>
        <mxCell id="a_a16aSGv4rgpMYStxbP-44" style="edgeStyle=orthogonalEdgeStyle;rounded=0;orthogonalLoop=1;jettySize=auto;html=1;exitX=1;exitY=0.5;exitDx=0;exitDy=0;" edge="1" parent="1" source="a_a16aSGv4rgpMYStxbP-41" target="a_a16aSGv4rgpMYStxbP-43">
          <mxGeometry relative="1" as="geometry" />
        </mxCell>
        <mxCell id="a_a16aSGv4rgpMYStxbP-41" value="CommonAnnotationBeanPostProcessor.java&lt;br&gt;metadata.inject(bean, beanName, pvs);" style="rounded=1;whiteSpace=wrap;html=1;" vertex="1" parent="1">
          <mxGeometry x="3880" y="2368" width="310" height="48" as="geometry" />
        </mxCell>
        <mxCell id="a_a16aSGv4rgpMYStxbP-46" style="edgeStyle=orthogonalEdgeStyle;rounded=0;orthogonalLoop=1;jettySize=auto;html=1;exitX=1;exitY=0.5;exitDx=0;exitDy=0;entryX=0;entryY=0.5;entryDx=0;entryDy=0;dashed=1;" edge="1" parent="1" source="a_a16aSGv4rgpMYStxbP-43" target="a_a16aSGv4rgpMYStxbP-45">
          <mxGeometry relative="1" as="geometry" />
        </mxCell>
        <mxCell id="a_a16aSGv4rgpMYStxbP-43" value="// 通过反射设置值&lt;br&gt;field.set(target, getResourceToInject(target, requestingBeanName));" style="rounded=1;whiteSpace=wrap;html=1;" vertex="1" parent="1">
          <mxGeometry x="4260" y="2368" width="310" height="48" as="geometry" />
        </mxCell>
        <mxCell id="a_a16aSGv4rgpMYStxbP-53" style="edgeStyle=orthogonalEdgeStyle;rounded=0;orthogonalLoop=1;jettySize=auto;html=1;exitX=1;exitY=0.5;exitDx=0;exitDy=0;entryX=0;entryY=0.5;entryDx=0;entryDy=0;" edge="1" parent="1" source="a_a16aSGv4rgpMYStxbP-45" target="a_a16aSGv4rgpMYStxbP-49">
          <mxGeometry relative="1" as="geometry" />
        </mxCell>
        <mxCell id="a_a16aSGv4rgpMYStxbP-45" value="CommonAnnotationBeanPostProcessor.java&lt;br&gt;getResourceToInject(Object target, @Nullable String requestingBeanName)" style="rounded=1;whiteSpace=wrap;html=1;" vertex="1" parent="1">
          <mxGeometry x="4650" y="2368" width="310" height="48" as="geometry" />
        </mxCell>
        <mxCell id="a_a16aSGv4rgpMYStxbP-47" style="edgeStyle=orthogonalEdgeStyle;rounded=0;orthogonalLoop=1;jettySize=auto;html=1;exitX=1;exitY=0.5;exitDx=0;exitDy=0;" edge="1" parent="1" source="a_a16aSGv4rgpMYStxbP-49" target="a_a16aSGv4rgpMYStxbP-51">
          <mxGeometry relative="1" as="geometry" />
        </mxCell>
        <mxCell id="a_a16aSGv4rgpMYStxbP-48" value="有@Lazy注解" style="edgeLabel;html=1;align=center;verticalAlign=middle;resizable=0;points=[];" vertex="1" connectable="0" parent="a_a16aSGv4rgpMYStxbP-47">
          <mxGeometry x="-0.2753" y="-1" relative="1" as="geometry">
            <mxPoint x="14" y="-1" as="offset" />
          </mxGeometry>
        </mxCell>
        <mxCell id="a_a16aSGv4rgpMYStxbP-55" style="edgeStyle=orthogonalEdgeStyle;rounded=0;orthogonalLoop=1;jettySize=auto;html=1;exitX=0.5;exitY=1;exitDx=0;exitDy=0;entryX=0.5;entryY=0;entryDx=0;entryDy=0;" edge="1" parent="1" source="a_a16aSGv4rgpMYStxbP-49" target="a_a16aSGv4rgpMYStxbP-54">
          <mxGeometry relative="1" as="geometry" />
        </mxCell>
        <mxCell id="a_a16aSGv4rgpMYStxbP-56" value="没有@Lazy注解" style="edgeLabel;html=1;align=center;verticalAlign=middle;resizable=0;points=[];" vertex="1" connectable="0" parent="a_a16aSGv4rgpMYStxbP-55">
          <mxGeometry x="-0.1549" y="-2" relative="1" as="geometry">
            <mxPoint as="offset" />
          </mxGeometry>
        </mxCell>
        <mxCell id="a_a16aSGv4rgpMYStxbP-49" value="&lt;div&gt;判断field上是有加了&lt;font color=&quot;#ff6666&quot;&gt;&lt;b&gt;@Lazy&lt;/b&gt;&lt;/font&gt;注解&lt;/div&gt;this.lazyLookup" style="rhombus;whiteSpace=wrap;html=1;fillColor=#dae8fc;strokeColor=#6c8ebf;" vertex="1" parent="1">
          <mxGeometry x="5050" y="2280" width="330" height="68" as="geometry" />
        </mxCell>
        <mxCell id="a_a16aSGv4rgpMYStxbP-50" style="edgeStyle=orthogonalEdgeStyle;rounded=0;orthogonalLoop=1;jettySize=auto;html=1;exitX=1;exitY=0.5;exitDx=0;exitDy=0;" edge="1" parent="1" source="a_a16aSGv4rgpMYStxbP-51" target="a_a16aSGv4rgpMYStxbP-52">
          <mxGeometry relative="1" as="geometry" />
        </mxCell>
        <mxCell id="a_a16aSGv4rgpMYStxbP-51" value="CommonAnnotationBeanPostProcessor.java&lt;br&gt;buildLazyResourceProxy(this, requestingBeanName)" style="rounded=1;whiteSpace=wrap;html=1;" vertex="1" parent="1">
          <mxGeometry x="5500" y="2284" width="290" height="60" as="geometry" />
        </mxCell>
        <mxCell id="a_a16aSGv4rgpMYStxbP-52" value="返回一个代理对象&lt;br&gt;CommonAnnotationBeanPostProcessor.java&lt;br&gt;return pf.getProxy(classLoader);" style="rounded=1;whiteSpace=wrap;html=1;" vertex="1" parent="1">
          <mxGeometry x="5890" y="2284" width="290" height="60" as="geometry" />
        </mxCell>
        <mxCell id="a_a16aSGv4rgpMYStxbP-59" style="edgeStyle=orthogonalEdgeStyle;rounded=0;orthogonalLoop=1;jettySize=auto;html=1;exitX=1;exitY=0.5;exitDx=0;exitDy=0;entryX=0;entryY=0.5;entryDx=0;entryDy=0;" edge="1" parent="1" source="a_a16aSGv4rgpMYStxbP-54" target="a_a16aSGv4rgpMYStxbP-58">
          <mxGeometry relative="1" as="geometry" />
        </mxCell>
        <mxCell id="a_a16aSGv4rgpMYStxbP-54" value="CommonAnnotationBeanPostProcessor.java&lt;br&gt;getResource(this, requestingBeanName" style="rounded=1;whiteSpace=wrap;html=1;" vertex="1" parent="1">
          <mxGeometry x="5070" y="2490" width="290" height="60" as="geometry" />
        </mxCell>
        <mxCell id="a_a16aSGv4rgpMYStxbP-61" style="edgeStyle=orthogonalEdgeStyle;rounded=0;orthogonalLoop=1;jettySize=auto;html=1;exitX=1;exitY=0.5;exitDx=0;exitDy=0;entryX=0;entryY=0.5;entryDx=0;entryDy=0;" edge="1" parent="1" source="a_a16aSGv4rgpMYStxbP-58" target="a_a16aSGv4rgpMYStxbP-60">
          <mxGeometry relative="1" as="geometry" />
        </mxCell>
        <mxCell id="a_a16aSGv4rgpMYStxbP-58" value="CommonAnnotationBeanPostProcessor.java&lt;br&gt;autowireResource(this.resourceFactory, element, requestingBeanName)" style="rounded=1;whiteSpace=wrap;html=1;" vertex="1" parent="1">
          <mxGeometry x="5500" y="2490" width="290" height="60" as="geometry" />
        </mxCell>
        <mxCell id="a_a16aSGv4rgpMYStxbP-64" style="edgeStyle=orthogonalEdgeStyle;rounded=0;orthogonalLoop=1;jettySize=auto;html=1;exitX=1;exitY=0.5;exitDx=0;exitDy=0;" edge="1" parent="1" source="a_a16aSGv4rgpMYStxbP-60" target="a_a16aSGv4rgpMYStxbP-62">
          <mxGeometry relative="1" as="geometry" />
        </mxCell>
        <mxCell id="a_a16aSGv4rgpMYStxbP-66" value="&lt;span style=&quot;font-size: 12px ; background-color: rgb(248 , 249 , 250)&quot;&gt;默认true&amp;amp;&amp;amp;没有给定beanName&amp;amp;&amp;amp;容器中没有beanName对对应的实例&lt;/span&gt;" style="edgeLabel;html=1;align=center;verticalAlign=middle;resizable=0;points=[];" vertex="1" connectable="0" parent="a_a16aSGv4rgpMYStxbP-64">
          <mxGeometry x="0.0442" relative="1" as="geometry">
            <mxPoint y="11" as="offset" />
          </mxGeometry>
        </mxCell>
        <mxCell id="a_a16aSGv4rgpMYStxbP-65" style="edgeStyle=orthogonalEdgeStyle;rounded=0;orthogonalLoop=1;jettySize=auto;html=1;exitX=1;exitY=0.5;exitDx=0;exitDy=0;entryX=0;entryY=0.5;entryDx=0;entryDy=0;" edge="1" parent="1" source="a_a16aSGv4rgpMYStxbP-60" target="a_a16aSGv4rgpMYStxbP-63">
          <mxGeometry relative="1" as="geometry">
            <mxPoint x="6560" y="2649.9999999999995" as="targetPoint" />
            <Array as="points">
              <mxPoint x="6440" y="2520" />
              <mxPoint x="6440" y="2650" />
            </Array>
          </mxGeometry>
        </mxCell>
        <mxCell id="a_a16aSGv4rgpMYStxbP-67" value="1.如果给定了beanName&lt;br&gt;2.如果容器中有创建好的实例&lt;br&gt;都会去直接通过beanName获取" style="edgeLabel;html=1;align=center;verticalAlign=middle;resizable=0;points=[];" vertex="1" connectable="0" parent="a_a16aSGv4rgpMYStxbP-65">
          <mxGeometry x="-0.1032" y="-2" relative="1" as="geometry">
            <mxPoint y="16" as="offset" />
          </mxGeometry>
        </mxCell>
        <mxCell id="a_a16aSGv4rgpMYStxbP-60" value="this.fallbackToDefaultTypeMatch &amp;amp;&amp;amp; element.isDefaultName &amp;amp;&amp;amp; !factory.containsBean(name)&lt;div&gt;&lt;/div&gt;" style="rhombus;whiteSpace=wrap;html=1;fillColor=#f8cecc;strokeColor=#b85450;" vertex="1" parent="1">
          <mxGeometry x="5900" y="2435" width="400" height="170" as="geometry" />
        </mxCell>
        <mxCell id="a_a16aSGv4rgpMYStxbP-62" value="通过类型查找&lt;br&gt;resource = beanFactory.resolveDependency(descriptor, requestingBeanName, autowiredBeanNames, null);" style="rounded=1;whiteSpace=wrap;html=1;fillColor=#dae8fc;strokeColor=#6c8ebf;" vertex="1" parent="1">
          <mxGeometry x="6580" y="2384" width="290" height="60" as="geometry" />
        </mxCell>
        <mxCell id="a_a16aSGv4rgpMYStxbP-63" value="直接通过名字去获取&lt;br&gt;CommonAnnotationBeanPostProcessor.java&lt;br&gt;resource = beanFactory.resolveBeanByName(name, descriptor);" style="rounded=1;whiteSpace=wrap;html=1;fillColor=#dae8fc;strokeColor=#6c8ebf;" vertex="1" parent="1">
          <mxGeometry x="6580" y="2620" width="290" height="60" as="geometry" />
        </mxCell>
      </root>
    </mxGraphModel>
  </diagram>
</mxfile>
